<svg width="40" height="40" viewBox="0 0 40 40" fill="none" xmlns="http://www.w3.org/2000/svg">
<path d="M39.6309 19.7337C39.7976 30.4573 30.6713 39.4674 19.7392 39.4398C9.29325 39.4121 -0.0553171 30.8305 0.000246434 19.6923C0.0419191 9.28649 8.52925 -0.0275768 19.9337 6.13541e-05C30.5046 0.0276995 39.8532 8.60936 39.6309 19.7337ZM21.031 37.0491C21.3366 37.0767 21.5589 37.1181 21.7673 37.1043C25.6011 36.7036 28.9488 35.1973 31.7687 32.5993C36.0887 28.6194 37.8807 23.6307 37.3945 17.8267C37.2278 15.7538 36.5888 13.7915 35.672 11.9121C35.4498 11.4699 35.2275 10.9724 34.6441 10.9448C34.0468 10.9171 33.4495 10.9448 32.8244 10.9448C32.7688 11.3041 32.6994 11.5252 32.6994 11.7463C32.6994 15.6018 31.6159 19.2362 30.0046 22.6772C28.6988 25.4825 27.0597 28.1219 25.5178 30.8028C24.3093 32.931 23.073 35.0591 21.156 36.6759C21.1144 36.7174 21.1144 36.8141 21.031 37.0491ZM11.6825 34.8656C11.7242 34.9486 11.7797 35.0315 11.8214 35.1144C11.8492 35.1835 11.8769 35.2802 11.9186 35.3078C13.6411 36.2752 15.5164 36.8279 17.4889 37.0076C17.7667 37.0352 18.1278 36.9247 18.3223 36.745C19.7392 35.4599 21.295 34.3129 22.309 32.6408C24.0731 29.7249 25.8651 26.8229 27.6848 23.9486C29.7545 20.6734 30.5602 16.9699 31.3797 13.2802C31.4909 12.7965 31.5048 12.2991 31.5464 11.8016C31.602 11.0001 31.3936 10.7099 30.6018 10.7237C29.8379 10.7237 29.06 10.7928 28.3237 10.9724C28.032 11.0415 27.7264 11.4285 27.6014 11.7463C27.2264 12.6307 26.9347 13.5428 26.643 14.441C25.6706 17.4121 24.2815 20.1759 22.5313 22.7601C19.7531 26.8782 16.5026 30.5817 12.8215 33.9259C12.4604 34.2576 12.0575 34.5616 11.6825 34.8795V34.8656ZM18.5862 24.7639C17.1138 23.6998 15.558 22.7601 14.2384 21.5578C12.9465 20.3832 11.8492 18.9737 10.7518 17.6056C9.61273 16.196 8.68204 14.6345 8.18197 12.8933C7.69579 11.1935 7.41798 9.4385 7.05682 7.6973C6.94569 7.71112 6.86234 7.6973 6.79288 7.73875C6.66787 7.82167 6.52896 7.90458 6.43172 8.01514C5.33434 9.25885 4.44532 10.6408 3.75078 12.147C3.54242 12.6031 3.58409 13.0176 3.75078 13.4737C5.79274 19.5679 8.93208 24.8883 14.2801 28.7161C14.5162 28.882 14.7801 29.0202 15.0024 29.1584C16.197 28.2187 18.2668 25.6345 18.5862 24.7777V24.7639ZM13.4049 17.7576C13.7105 17.4812 13.9189 17.3154 14.0995 17.1219C15.0024 16.2375 15.8358 15.2702 16.7943 14.4548C21.2116 10.7375 26.1429 8.34679 32.1299 8.74755C32.491 8.77519 32.8522 8.73373 33.255 8.71991C33.2272 8.47117 33.255 8.31916 33.1994 8.26388C32.2687 7.35182 31.352 6.43976 30.3935 5.58298C30.199 5.40333 29.8101 5.36187 29.5322 5.37569C28.0042 5.47242 26.4624 5.48624 24.9622 5.74881C20.5449 6.52267 16.5998 8.48499 12.9188 10.9724C12.252 11.4146 11.6547 11.9674 11.0574 12.5063C10.3767 13.1144 10.3767 13.2526 10.8351 14.0817C11.1963 14.7174 11.5714 15.3393 11.9881 15.9335C12.4187 16.5415 12.9049 17.1219 13.4188 17.7576H13.4049ZM2.88955 15.6018C1.79217 17.2739 1.9033 21.931 3.02846 25.1508C4.36198 28.9787 6.66786 32.0604 10.0572 34.2714C11.3352 33.3317 13.53 31.0516 13.9328 30.2639C11.5436 28.343 8.95986 26.588 7.14016 24.0176C5.33434 21.4749 4.09806 18.642 2.90345 15.6018H2.88955ZM26.5457 3.66212C26.5457 3.57921 26.5457 3.49629 26.5457 3.41338C26.1707 3.24755 25.8095 3.0679 25.4344 2.92971C22.2256 1.85182 18.9752 1.67217 15.683 2.47368C13.4605 3.01262 11.3769 3.88323 9.55717 5.29277C9.27935 5.51388 8.9043 5.84554 8.89041 6.14956C8.79317 8.00132 9.08488 9.7978 9.8072 11.5114C9.83498 11.5666 9.93222 11.5943 10.0572 11.6772C10.2656 11.4975 10.4879 11.3041 10.6962 11.1106C11.1963 10.6408 11.6547 10.1018 12.1964 9.70107C16.1692 6.7576 20.5587 4.75383 25.4761 3.96614C25.8373 3.91087 26.1707 3.77267 26.5179 3.67594L26.5457 3.66212ZM14.6135 19.1671C16.0164 20.936 18.0723 21.9033 19.8642 23.1885C21.9756 21.1433 25.615 13.7224 25.4483 11.8845C23.0035 12.0089 16.2109 16.5277 14.6135 19.1671Z" fill="black"/>
</svg>
