<svg width="40" height="40" viewBox="0 0 40 40" fill="none" xmlns="http://www.w3.org/2000/svg">
<path d="M19.5321 39.1093C9.3084 39.2751 -0.137396 30.7211 0.00151325 19.4309C0.0709676 14.1105 2.0018 9.56405 5.71066 5.77762C9.66956 1.74244 14.6564 -0.0540401 20.1988 0.00123625C30.6726 0.0979699 39.4377 8.70727 39.3127 19.7625C39.1738 31.3015 29.603 39.3304 19.5321 39.1093ZM19.6432 37.0364C28.7278 37.0364 37.1457 29.9334 37.1874 19.5553C37.2291 10.5037 30.3531 2.03264 18.5458 1.88063C9.2945 2.6545 1.94624 9.85425 1.93234 19.4585C1.91845 29.7814 10.3919 37.0917 19.6293 37.0226L19.6432 37.0364Z" fill="black"/>
<path d="M19.7544 4.39571C27.561 4.2437 34.6871 10.794 34.6454 19.3342C34.6176 27.9296 27.436 34.2311 19.5182 34.2035C12.5311 34.1759 4.90502 28.745 4.82167 19.4171C4.72444 9.39823 13.3785 4.14697 19.7544 4.39571ZM19.6016 32.1306C26.6442 32.255 32.5201 26.451 32.5618 19.3618C32.5895 12.3141 26.7554 6.51004 19.671 6.4824C11.5726 6.45476 6.65527 12.9636 6.59971 19.1407C6.53026 26.5754 12.7811 32.1859 19.6155 32.1306H19.6016Z" fill="black"/>
<path d="M16.8234 22.7336C18.9625 22.6922 20.046 23.549 20.1016 25.3316C20.1572 27.1972 18.8792 28.7588 17.2262 28.8002C15.601 28.8555 13.9757 27.2939 13.934 25.6495C13.8785 23.7424 14.837 22.7751 16.8372 22.7336H16.8234ZM17.2679 24.7512C16.5872 24.7512 15.8093 25.2902 15.8232 25.7324C15.8232 26.2022 16.5316 26.7826 17.0873 26.7965C17.6707 26.7965 18.1708 26.2713 18.1847 25.6218C18.1847 25.0553 17.8652 24.7374 17.2818 24.7512H17.2679Z" fill="black"/>
<path d="M25.5607 26.147C24.1022 26.147 23.0465 25.2487 22.7409 23.7839C22.4214 22.2638 23.0881 20.7713 24.3522 20.2186C24.5467 20.1357 24.8106 20.0113 24.9912 20.0666C25.7969 20.3291 26.6303 20.5502 27.3387 20.9924C27.7971 21.2826 28.1722 21.863 28.3528 22.3882C29.0473 24.3643 27.6721 26.1746 25.5607 26.1608V26.147ZM24.4494 22.4158C24.6161 23.0238 24.6578 23.4246 24.8245 23.7563C25.0467 24.1708 25.5051 24.2537 25.8802 24.0603C26.1302 23.9359 26.3942 23.6042 26.4219 23.3417C26.4775 22.8857 26.158 22.5955 25.6996 22.5402C25.3801 22.4987 25.0606 22.4711 24.4494 22.4158Z" fill="black"/>
<path d="M23.0048 17.9108C21.5741 17.9108 20.4767 17.1646 20.0877 15.9208C19.6849 14.6357 20.1572 13.0465 21.199 12.3002C21.7408 11.9133 22.2964 11.706 22.9632 12.0239C23.2965 12.1759 23.6855 12.1897 24.0467 12.3002C25.4913 12.7424 26.2275 13.9585 25.8525 15.4095C25.533 16.6671 24.7134 17.9661 23.0048 17.9108ZM22.352 13.9171C21.8658 14.6633 21.8102 15.1193 22.1714 15.5477C22.4631 15.8932 22.8381 16.0038 23.2688 15.8379C23.6299 15.6997 24.005 15.0917 23.88 14.76C23.6021 14.0553 22.9493 14.0276 22.352 13.9309V13.9171Z" fill="black"/>
<path d="M11.1698 17.5377C11.2254 15.7688 11.9894 15.0641 13.7535 15.1193C15.4065 15.1746 16.74 16.446 16.6567 17.8832C16.5734 19.2374 15.0592 20.6193 13.6424 20.495C11.8921 20.343 11.0864 19.1821 11.1698 17.5377ZM13.9758 18.4636C14.1008 18.3115 14.4341 18.1043 14.5314 17.8141C14.6425 17.4686 14.0869 17.1093 13.5729 17.1231C13.184 17.1231 12.92 17.2889 12.9617 17.7311C13.0034 18.1595 13.3646 18.4912 13.9758 18.4774V18.4636Z" fill="black"/>
</svg>
