<svg width="21" height="21" viewBox="0 0 21 21" fill="none" xmlns="http://www.w3.org/2000/svg">
<path d="M20.7746 10.5265C20.7061 16.4033 16.1251 21.0707 10.4963 21C4.8299 20.9257 0.36867 16.1805 0.443994 10.3073C0.519318 4.58613 5.15174 -0.0707175 10.6743 1.48907e-06C16.238 0.0707205 20.7369 4.65331 20.7746 10.5265ZM8.69881 11.8277V18.4081H11.4824V11.8207H13.5298C13.6668 10.9119 13.8003 10.0421 13.9372 9.12982H11.4926C11.4926 8.39081 11.4481 7.68715 11.5132 6.99057C11.5371 6.72538 11.7597 6.40714 11.9822 6.24802C12.2322 6.07123 12.578 6.01111 12.893 5.97222C13.2525 5.92625 13.6223 5.96161 14.0023 5.96161V3.73396C13.3552 3.70568 12.7321 3.66678 12.1089 3.65617C11.7426 3.6491 11.366 3.63496 11.0099 3.70921C9.7328 3.97087 8.82207 5.13066 8.72278 6.63698C8.67484 7.3371 8.70223 8.04428 8.69538 8.74794C8.69538 8.8717 8.68511 8.99192 8.67484 9.15457H6.37404V11.8242H8.69538L8.69881 11.8277Z" fill="black"/>
<path d="M8.69879 11.8277H6.37744V9.15808H8.67824C8.68509 8.99543 8.69536 8.87167 8.69879 8.75145C8.70563 8.04779 8.68167 7.3406 8.72618 6.64049C8.82889 5.13417 9.7362 3.97438 11.0133 3.71272C11.3694 3.63847 11.746 3.65261 12.1123 3.65968C12.7355 3.67029 13.3586 3.70918 14.0057 3.73747V5.96512C13.6257 5.96512 13.2559 5.92976 12.8964 5.97573C12.5814 6.01462 12.2356 6.07473 11.9856 6.25153C11.7631 6.41065 11.5406 6.72535 11.5166 6.99408C11.4515 7.68713 11.496 8.39432 11.496 9.13333H13.9406C13.8037 10.0491 13.6702 10.9154 13.5332 11.8242H11.4858V18.4117H8.70221V11.8313L8.69879 11.8277Z" fill="white"/>
</svg>
