<svg width="177" height="250" viewBox="0 0 177 250" fill="none" xmlns="http://www.w3.org/2000/svg">
<g clip-path="url(#clip0_230_750)">
<path d="M51.6073 152.663V142.677H54.991V146.637H62.6331V148.923H54.991V150.4H62.8288V152.663H51.6073Z" fill="#171715"/>
<path d="M64.1178 152.709V142.677H75.7536V145.009H67.49V146.66H75.4198V148.957H67.49V150.435H75.604V152.709H64.1178Z" fill="#171715"/>
<path d="M89.0121 146.845C88.6668 147.214 88.218 147.491 87.6656 147.641C88.8855 148.034 89.4955 148.761 89.4955 149.8V149.962C89.4955 151.67 88.0684 152.513 85.2141 152.513H77.2612V142.666H80.3457V146.163H84.3739C85.122 146.163 85.6514 146.025 85.9622 145.748C86.2729 145.471 86.4226 145.032 86.4226 144.42V142.666H89.5185V145.378C89.5185 145.979 89.3459 146.464 89.0006 146.845H89.0121ZM86.2729 149.315C86.2729 149.026 86.1694 148.796 85.9737 148.611C85.7665 148.438 85.4558 148.345 85.0299 148.345H80.3572V150.273H85.0299C85.4558 150.273 85.7665 150.181 85.9737 150.008C86.1809 149.835 86.2729 149.604 86.2729 149.315Z" fill="#171715"/>
<path d="M94.4331 152.663H91.0378V142.677H94.4331V152.663Z" fill="#171715"/>
<path d="M105.608 152.582H100.544L95.2386 142.688H98.5763L99.5086 144.501H106.621L107.553 142.688H110.891L105.585 152.582H105.608ZM100.671 146.729L102.547 150.365H103.606L105.482 146.729H100.659H100.671Z" fill="#171715"/>
<path d="M128.869 152.582H123.805L118.499 142.688H121.836L122.769 144.501H129.881L130.814 142.688H134.151L128.846 152.582H128.869ZM123.931 146.729L125.807 150.365H126.866L128.742 146.729H123.92H123.931Z" fill="#171715"/>
<path d="M135.003 142.666H138.283V149.592L142.564 142.666H144.394L148.676 149.592V142.666H152.037V152.675H147.375L143.6 146.441L139.837 152.675H135.003V142.666Z" fill="#171715"/>
<path d="M157.135 152.663H153.74V142.677H157.135V152.663Z" fill="#171715"/>
<path d="M50.042 49.8255V46.4199H59.9975V49.8255H50.042Z" fill="#171715"/>
<path d="M60.1701 58.6571C60.1701 61.0583 59.5946 62.8015 58.4437 63.8983C59.0997 63.9098 59.9974 63.9329 59.9974 63.9329V66.3918H54.4155V58.7264H56.303V62.9978H56.326C56.3835 62.9978 56.4756 62.9516 56.5792 62.8708C56.6828 62.79 56.8094 62.6399 56.9475 62.4321C57.0856 62.2243 57.2122 61.9703 57.3273 61.6586C57.4424 61.3585 57.546 60.9544 57.6265 60.4465C57.7071 59.9385 57.7416 59.3844 57.7416 58.7726C57.7416 57.3872 57.4769 56.3598 56.9475 55.6787C56.4181 54.9975 55.7966 54.6627 55.06 54.6627H54.9104C53.1149 54.6627 52.2172 56.0481 52.2172 58.8072C52.2172 61.0352 52.6891 62.3282 53.6328 62.6861V66.311H53.6213C53.3106 66.311 52.9998 66.2418 52.7006 66.1379C52.4014 66.034 52.0676 65.8146 51.7108 65.4914C51.354 65.1681 51.0318 64.7525 50.7786 64.2561C50.5138 63.7482 50.2952 63.0555 50.111 62.1666C49.9269 61.2777 49.8463 60.2502 49.8463 59.0958V58.4609C49.8463 57.2602 49.9614 56.2097 50.1801 55.2977C50.3988 54.3857 50.6865 53.6699 51.0203 53.1504C51.354 52.6309 51.7568 52.2153 52.2057 51.8805C52.6661 51.5573 53.1034 51.338 53.5062 51.2341C53.9091 51.1302 54.3349 51.084 54.7723 51.084H55.1521C55.5894 51.084 56.0152 51.1417 56.4411 51.2687C56.8669 51.3957 57.3043 51.615 57.7646 51.9498C58.225 52.2846 58.6278 52.7117 58.9731 53.2312C59.3184 53.7507 59.5946 54.4549 59.8248 55.3323C60.0435 56.2097 60.1586 57.2141 60.1586 58.3454V58.6571H60.1701Z" fill="#171715"/>
<path d="M50.1226 77.4284V72.3488L59.9859 67.0269V70.3747L58.179 71.3098V78.4443L59.9859 79.3794V82.7272L50.1226 77.4053V77.4284ZM55.9577 72.4643L52.3323 74.346V75.4081L55.9577 77.2898V72.4527V72.4643Z" fill="#171715"/>
<path d="M50.042 91.2236H59.9975V94.6177H56.0498V102.283H53.771V94.6177H52.2978V102.479H50.042V91.2236Z" fill="#171715"/>
<path d="M49.996 103.772H59.9975V115.444H57.6726V107.155H56.0268V115.109H53.7365V107.155H52.2633V115.294H49.996V103.772Z" fill="#171715"/>
<path d="M55.8427 128.743C55.4744 128.397 55.1982 127.946 55.0485 127.392C54.6572 128.616 53.9321 129.228 52.8963 129.228H52.7352C51.0318 129.228 50.1917 127.796 50.1917 124.933V116.956H60.009V120.05H56.5217V124.09C56.5217 124.841 56.6598 125.372 56.936 125.684C57.2123 125.995 57.6496 126.145 58.2596 126.145H60.009V129.251H57.3043C56.7059 129.251 56.2225 129.078 55.8427 128.731V128.743ZM53.3797 125.995C53.6674 125.995 53.8976 125.891 54.0818 125.695C54.2544 125.487 54.3465 125.176 54.3465 124.749V120.061H52.4244V124.749C52.4244 125.176 52.5165 125.487 52.6891 125.695C52.8618 125.903 53.092 125.995 53.3797 125.995Z" fill="#171715"/>
<path d="M50.042 134.181V130.775H59.9975V134.181H50.042Z" fill="#171715"/>
<path d="M91.3946 31.9665C91.2795 27.0255 91.1759 22.0383 92.1197 17.1897C93.0634 12.341 95.1696 7.5732 98.8296 4.28305C102.501 0.992895 107.91 -0.588687 112.537 1.10834C116.772 2.65529 119.753 6.62656 121.296 10.8634C125.071 21.2649 121.399 32.8092 117.463 43.6379C123.931 36.4804 130.745 29.0804 139.745 25.6517C143.669 24.1509 148.123 23.5045 152.048 25.0052C157.101 26.9331 160.369 32.2667 160.841 37.6694C161.313 43.0722 159.333 48.4634 156.341 52.9888C153.36 57.5142 149.412 61.3008 145.799 65.6184C151.645 64.7641 157.745 64.4409 163.339 66.3342C168.932 68.2274 173.962 72.7528 175.009 78.5828C176.125 84.759 172.546 91.0622 167.505 94.7795C162.464 98.4968 156.18 100.067 149.597 101.568C155.869 102.306 162.337 103.115 167.793 106.289C173.26 109.464 177.483 115.675 176.356 121.909C175.113 128.789 167.804 133.188 160.841 133.476C153.878 133.765 147.214 130.937 140.873 128.639C145.476 131.375 150.138 134.157 153.936 137.956C157.722 141.754 160.599 146.741 160.784 152.121C160.968 157.489 157.952 163.134 152.923 164.981C148.595 166.574 143.773 165.223 139.561 163.342C131.942 159.948 125.105 154.81 119.143 148.715C121.411 153.991 123.689 159.347 124.449 165.039C125.197 170.73 124.23 176.895 120.582 181.316C116.922 185.738 110.224 187.804 105.183 185.08C102.075 183.394 100.038 180.266 98.3347 177.16C94.7783 170.649 92.1082 163.653 90.1286 156.623C88.6439 163.526 86.1464 170.199 82.9123 176.468C81.0824 180.012 78.792 183.637 75.1436 185.207C72.7152 186.246 69.9645 186.246 67.3634 185.807C63.9337 185.241 60.5269 183.902 58.0985 181.409C55.8312 179.088 54.5652 175.925 54.0703 172.716C53.5754 169.506 53.794 166.228 54.1623 163.007C54.8874 156.658 56.28 150.158 60.1241 144.975C56.5563 150.447 52.2748 155.457 47.4179 159.821C43.4588 163.376 38.6019 166.678 33.3077 166.228C28.7845 165.847 24.7563 162.591 22.9149 158.435C21.0734 154.279 21.2575 149.373 22.8803 145.125C24.5031 140.865 27.461 137.228 30.9137 134.261C34.3665 131.306 38.3142 128.986 42.3539 126.896C34.9074 128.928 27.1733 129.967 19.4506 129.955C15.641 129.955 11.6704 129.644 8.40175 127.693C3.37223 124.703 1.11643 118.399 1.22001 112.535C1.27756 108.783 2.23282 104.904 4.69579 102.087C6.97461 99.4897 10.3123 98.0466 13.673 97.2385C20.1757 95.6569 27.1733 96.1533 33.6299 98.3583C24.5607 97.0191 15.8022 93.6597 8.17157 88.5802C5.66256 86.9178 3.2111 84.9899 1.77245 82.3462C-0.690517 77.8208 0.402858 71.9909 3.32619 67.7541C5.0871 65.1913 7.55007 63.0209 10.4964 62.0396C13.9377 60.8968 17.6782 61.4509 21.223 62.1782C28.2091 63.6212 35.2642 65.8262 41.3756 69.6359C37.3704 66.6574 33.3422 63.6674 29.8434 60.1002C26.3446 56.533 23.3637 52.3539 21.8215 47.5976C20.2792 42.8413 20.2792 37.4616 22.489 32.9824C24.6988 28.4916 29.2794 25.0976 34.2629 24.9475C37.428 24.8552 40.547 26.0211 43.1941 27.7759C45.8412 29.5306 48.051 31.8626 50.1226 34.2638C54.3235 39.1587 58.0064 44.4922 61.4016 50.299C56.7059 43.915 55.1061 35.7992 54.0588 27.9375C53.5408 24.024 53.1265 19.9834 54.1278 16.1622C55.3938 11.3828 58.9502 7.2615 63.4963 5.34513C68.0424 3.42876 73.4633 3.74046 77.7677 6.17633C82.1297 8.64683 85.1221 13.0337 87.0787 17.6515C89.0352 22.2692 90.0826 27.2218 91.4061 31.955L91.3946 31.9665Z" fill="#D992BF"/>
<path d="M105.033 185.438C101.787 183.683 99.6697 180.358 98.0239 177.357C94.9164 171.688 92.3038 165.281 90.2207 158.285C88.759 164.438 86.4457 170.615 83.3267 176.664C81.5197 180.162 79.1719 183.96 75.3508 185.599C73.1756 186.534 70.4824 186.754 67.3404 186.234C63.3812 185.576 60.0896 184.018 57.8453 181.72C55.1406 178.95 54.1048 175.336 53.7135 172.808C53.1956 169.437 53.4718 165.951 53.8056 162.984C54.2314 159.278 54.9335 154.88 56.5908 150.701C53.9207 154.095 50.9628 157.258 47.7517 160.144C44.3795 163.18 39.1774 167.163 33.3307 166.655C28.8076 166.274 24.5952 163.122 22.5926 158.608C20.7972 154.568 20.7857 149.604 22.5466 144.986C24.0658 141.003 26.805 137.298 30.6951 133.961C33.4573 131.595 36.4957 129.678 39.2349 128.143C32.8128 129.632 26.2295 130.382 19.6232 130.382H19.4966C15.8367 130.382 11.6474 130.094 8.22913 128.062C2.64717 124.749 0.759661 117.868 0.840225 112.546C0.886262 109.464 1.5538 105.1 4.41959 101.833C6.44521 99.5127 9.54118 97.8388 13.6039 96.8575C16.3201 96.1995 19.1744 95.8878 21.9826 95.9109C17.0452 94.1792 12.3034 91.8357 7.96442 88.9381C5.59353 87.368 2.96943 85.3824 1.42719 82.554C-0.920683 78.2249 -0.310695 72.3257 3.00395 67.5232C4.97203 64.6602 7.59613 62.5822 10.3814 61.6587C14.0298 60.4465 17.9429 61.093 21.3266 61.7857C27.2769 63.0094 32.3754 64.6256 36.772 66.6805C34.2629 64.7295 31.8 62.6746 29.5672 60.4003C25.585 56.3483 22.8458 52.0768 21.4417 47.7361C19.7614 42.5527 20.0146 37.1153 22.1322 32.8092C24.4916 28.0068 29.3715 24.6935 34.2629 24.5435C38.061 24.4511 41.3526 26.0558 43.4358 27.4411C46.267 29.3228 48.5689 31.8164 50.4449 34.0099C52.6316 36.5612 54.7263 39.2741 56.7404 42.1948C55.1291 37.6579 54.289 32.7862 53.6444 28.0068C53.1265 24.1048 52.7007 19.9603 53.725 16.0699C55.014 11.1866 58.697 6.93826 63.3352 4.97571C67.9734 3.01316 73.5784 3.33641 77.9634 5.82999C81.8765 8.04652 85.1566 12.0871 87.447 17.5129C88.9317 21.0224 89.8984 24.7397 90.8422 28.3416C90.8652 28.4339 90.8882 28.5263 90.9112 28.6071C90.8652 24.7859 90.9688 20.9185 91.7169 17.132C92.4765 13.2646 94.2719 7.83872 98.5649 3.99444C102.616 0.357952 108.152 -0.923476 112.687 0.738917C116.623 2.17042 119.903 5.81845 121.698 10.7479C125.255 20.526 122.274 31.4008 118.579 41.837C124.403 35.4298 131.032 28.5609 139.618 25.2938C142.887 24.047 147.721 22.9157 152.221 24.6474C157.124 26.5175 160.772 31.7472 161.278 37.6579C161.831 43.9842 159.103 49.6179 156.721 53.2313C154.718 56.2674 152.347 58.9111 149.827 61.7049C148.849 62.8016 147.836 63.9214 146.846 65.0758C151.749 64.4178 157.849 64.0484 163.5 65.9532C169.761 68.0774 174.457 73.0068 175.446 78.525C176.505 84.4011 173.501 90.9237 167.781 95.1259C163.362 98.3814 158.021 100.021 152.025 101.452C157.377 102.122 163.143 103.092 168.046 105.943C173.133 108.898 178.047 115.178 176.816 121.99C175.492 129.355 167.632 133.615 160.91 133.892C155.34 134.111 150.011 132.403 144.843 130.521C148.193 132.587 151.461 134.85 154.269 137.667C158.597 142.008 161.071 147.133 161.244 152.109C161.44 157.985 158.021 163.561 153.118 165.374C149.436 166.724 144.958 166.193 139.446 163.723C132.782 160.744 126.394 156.311 120.421 150.516C122.377 155.145 124.242 159.913 124.909 164.981C125.761 171.457 124.322 177.507 120.95 181.582C118.234 184.872 114.125 186.708 110.235 186.708C108.405 186.708 106.61 186.303 105.033 185.449V185.438ZM119.489 148.415C125.819 154.88 132.644 159.763 139.779 162.949C145.097 165.316 149.355 165.858 152.831 164.577C157.411 162.891 160.599 157.65 160.415 152.121C160.254 147.364 157.872 142.435 153.694 138.244C149.919 134.469 145.246 131.687 140.712 128.986C140.527 128.882 140.458 128.651 140.55 128.455C140.643 128.258 140.861 128.166 141.068 128.235C141.805 128.501 142.542 128.778 143.29 129.043C148.952 131.133 154.81 133.303 160.876 133.038C167.275 132.772 174.756 128.755 175.999 121.817C177.161 115.398 172.465 109.452 167.632 106.636C162.165 103.461 155.478 102.664 149.597 101.972C149.401 101.949 149.24 101.787 149.228 101.579C149.228 101.371 149.355 101.198 149.551 101.152C156.387 99.5936 162.452 98.0004 167.298 94.4332C171.775 91.1315 175.78 84.9784 174.641 78.6405C173.697 73.4224 169.22 68.7354 163.247 66.7151C157.342 64.7179 150.874 65.2952 145.902 66.0109C145.718 66.0455 145.568 65.9532 145.476 65.8031C145.396 65.653 145.407 65.4683 145.522 65.3298C146.731 63.8752 147.997 62.4668 149.217 61.1045C151.703 58.3339 154.062 55.7133 156.03 52.7349C158.344 49.2254 160.991 43.7649 160.461 37.681C159.978 32.0819 156.548 27.1409 151.933 25.3747C147.686 23.7469 143.048 24.8321 139.917 26.0211C130.814 29.496 123.897 37.1384 117.785 43.9034C117.647 44.0535 117.44 44.0766 117.267 43.9842C117.095 43.8919 117.026 43.6725 117.095 43.4878C121.215 32.1512 124.61 21.1379 120.927 10.9903C119.224 6.29177 116.116 2.82845 112.41 1.47776C108.164 -0.0807353 102.95 1.14297 99.1288 4.57166C95.0085 8.26586 93.2706 13.507 92.5455 17.2474C91.6018 22.0614 91.7169 27.0832 91.8205 31.9319C91.8205 32.1397 91.6708 32.3244 91.4637 32.3475C91.245 32.3821 91.0609 32.2551 91.0033 32.0473C90.6811 30.8698 90.3703 29.6923 90.0596 28.5032C89.1273 24.936 88.1605 21.2418 86.6989 17.79C84.4776 12.5373 81.3241 8.63528 77.5721 6.51111C73.4057 4.14451 68.077 3.84436 63.669 5.70301C59.2609 7.56165 55.7621 11.6022 54.5422 16.243C53.5524 19.995 53.9667 24.0355 54.4846 27.8567C55.3133 34.0329 56.4872 40.3939 59.2264 45.889C60.0781 47.2397 60.9298 48.6251 61.7699 50.0681C61.885 50.2528 61.8275 50.5068 61.6433 50.6222C61.4707 50.7377 61.2175 50.703 61.0794 50.5183C60.0896 49.1792 59.2379 47.7592 58.5013 46.2931C55.7391 41.9639 52.8848 38.0735 49.8234 34.5178C47.9819 32.3706 45.7261 29.9347 42.9754 28.0991C40.9843 26.7831 37.8538 25.2361 34.286 25.34C29.6938 25.4786 25.1016 28.6186 22.8803 33.144C20.8547 37.2654 20.6245 42.4719 22.2358 47.4475C23.6054 51.6728 26.2756 55.8288 30.1657 59.7885C33.6414 63.3211 37.7042 66.3457 41.6519 69.278C41.8245 69.4165 41.8705 69.6589 41.7439 69.8437C41.6173 70.0284 41.3756 70.0861 41.18 69.9591C35.8973 66.6689 29.3485 64.2446 21.1655 62.5591C17.8854 61.878 14.1103 61.2546 10.6461 62.4091C8.02197 63.2749 5.559 65.249 3.69451 67.9619C0.564004 72.5104 -0.0344743 78.0633 2.16378 82.1269C3.61394 84.7936 6.14597 86.6985 8.42479 88.2108C13.5924 91.6395 19.301 94.2947 25.2628 96.061C28.1055 96.3496 30.9713 96.9845 33.7911 97.9427C33.9982 98.012 34.1133 98.2198 34.0558 98.4276C33.9982 98.6354 33.8026 98.7739 33.5954 98.7393C30.7296 98.3121 27.8868 97.6887 25.1016 96.8691C21.246 96.4881 17.4365 96.7306 13.7996 97.6079C9.89797 98.5546 6.95161 100.148 5.04108 102.33C2.34793 105.412 1.72643 109.568 1.66889 112.512C1.58832 117.603 3.37225 124.172 8.65497 127.3C11.9006 129.228 15.9518 129.494 19.4966 129.505H19.6232C27.2769 129.505 34.896 128.478 42.2849 126.469C42.492 126.411 42.6992 126.527 42.7798 126.723C42.8603 126.919 42.7798 127.15 42.5841 127.242C39.2694 128.951 34.9765 131.341 31.2245 134.55C27.438 137.794 24.7794 141.384 23.3177 145.24C21.6374 149.662 21.6489 154.395 23.3522 158.239C25.2282 162.476 29.1759 165.431 33.3998 165.789C37.6467 166.147 42.0201 164.138 47.1993 159.486C51.5152 155.595 55.3708 151.22 58.674 146.441C59.0307 145.84 59.4221 145.263 59.8479 144.697C59.986 144.524 60.2392 144.478 60.4119 144.605C60.596 144.732 60.642 144.986 60.5269 145.171C60.1471 145.748 59.7673 146.325 59.376 146.891C56.257 152.028 55.1982 158.135 54.6342 163.03C54.289 166.089 54.0358 169.368 54.5422 172.623C54.9104 175.036 55.9002 178.465 58.4553 181.085C61.1369 183.833 64.8429 184.93 67.49 185.357C70.4709 185.853 73.0144 185.657 75.04 184.78C78.6079 183.244 80.8637 179.596 82.6016 176.225C85.9508 169.726 88.3677 163.088 89.7833 156.484C89.8179 156.3 89.979 156.161 90.1747 156.161C90.3818 156.161 90.5314 156.277 90.589 156.461C92.7182 164 95.4689 170.88 98.7605 176.906C100.349 179.816 102.386 183.002 105.447 184.664C110.04 187.146 116.577 185.542 120.329 181.005C123.551 177.103 124.932 171.284 124.104 165.039C123.356 159.37 121.054 154.014 118.833 148.83C118.752 148.646 118.821 148.438 118.982 148.322C119.051 148.276 119.132 148.253 119.212 148.253C119.316 148.253 119.431 148.299 119.512 148.38L119.489 148.415Z" fill="#25221E"/>
<path d="M90.0595 47.1817C69.0092 48.2438 49.4781 63.9442 43.8846 84.3316C38.2911 104.719 47.0381 128.235 64.5896 139.952C82.1412 151.67 107.139 150.7 123.735 137.655C140.332 124.61 147.237 100.482 140.09 80.5912C132.943 60.7002 112.249 46.0619 90.0595 47.1817Z" fill="#FCBF34"/>
<path d="M64.4976 140.091C55.9808 134.4 49.2018 125.661 45.4038 115.456C41.6058 105.25 41.0073 94.1908 43.7235 84.2972C46.4396 74.4037 52.5971 65.2028 61.0678 58.3916C69.5386 51.5804 79.8278 47.5399 90.048 47.0319C111.777 45.9352 132.874 60.0424 140.24 80.5568C143.704 90.2079 143.969 101.291 140.965 111.75C137.961 122.221 131.884 131.468 123.827 137.794C115.771 144.12 105.367 147.838 94.5136 148.265C93.823 148.288 93.1325 148.299 92.4419 148.299C82.3138 148.299 72.4619 145.413 64.4861 140.091H64.4976ZM90.071 47.3436C68.9977 48.4057 49.6392 63.9791 44.0457 84.378C38.4407 104.777 47.1187 128.097 64.6817 139.826C82.2448 151.555 107.036 150.585 123.643 137.54C140.251 124.483 147.099 100.563 139.952 80.6607C132.897 61.0122 113.158 47.2974 92.4189 47.2974C91.6363 47.2974 90.8536 47.3205 90.0825 47.3552L90.071 47.3436Z" fill="#FCBF34"/>
<path d="M64.3594 140.299C46.6008 128.443 37.8192 104.858 43.4818 84.2163C49.1443 63.5865 68.7214 47.8284 90.0365 46.7663C111.881 45.6812 133.069 59.8461 140.481 80.4529C147.721 100.586 140.781 124.783 123.989 137.979C115.046 145.009 103.744 148.576 92.4534 148.576C82.5555 148.576 72.6576 145.84 64.3594 140.299ZM90.0825 47.5975C69.1127 48.6481 49.8579 64.1406 44.2874 84.4472C38.717 104.742 47.3489 127.947 64.8198 139.618C82.2908 151.289 106.967 150.331 123.482 137.344C139.998 124.356 146.823 100.552 139.699 80.753C132.678 61.2084 113.032 47.5513 92.4074 47.5513C91.6363 47.5513 90.8536 47.5744 90.0825 47.6091V47.5975Z" fill="#25221E"/>
<path d="M125.738 104.869H125.773C129.847 104.846 133.518 101.244 133.633 97.1575C133.633 96.9266 133.461 96.7419 133.231 96.7304C133.023 96.7073 132.816 96.9035 132.805 97.1344C132.713 100.725 129.352 104.026 125.773 104.038H125.738C122.159 104.038 118.798 100.782 118.671 97.2037C118.671 96.9728 118.476 96.7765 118.246 96.7996C118.015 96.7996 117.843 96.9959 117.843 97.2268C117.992 101.302 121.675 104.869 125.738 104.869Z" fill="#25221E"/>
<path d="M53.3912 102.353C55.2442 102.353 57.1087 101.522 58.5128 100.055C59.9284 98.5778 60.6881 96.6499 60.596 94.7681C60.596 94.5373 60.4348 94.3872 60.1586 94.3756C59.9284 94.3756 59.7558 94.5834 59.7673 94.8143C59.8479 96.4652 59.1688 98.1622 57.9143 99.4783C56.6598 100.783 55.0255 101.522 53.3912 101.522H53.3337C51.6879 101.51 50.0305 100.725 48.799 99.3859C47.5676 98.0468 46.923 96.3266 47.0381 94.6873C47.0496 94.4564 46.8885 94.2602 46.6583 94.2486C46.4166 94.2256 46.2325 94.3987 46.221 94.6296C46.0944 96.4998 46.8195 98.4393 48.2006 99.9516C49.5932 101.464 51.4577 102.341 53.3337 102.353H53.3912Z" fill="#25221E"/>
<path d="M91.2679 127.312C90.2551 127.358 89.2308 127.37 88.218 127.335C84.2013 127.185 80.2306 126.331 76.5016 124.876L76.4556 124.991C76.2484 126.665 76.0642 128.374 76.2369 130.048C76.4095 131.722 76.9965 133.43 78.1819 134.631C80.3227 136.859 84.0862 136.917 86.6872 135.277C89.2883 133.627 90.8075 130.614 91.2794 127.566V127.312H91.2679Z" fill="#FFFBF8"/>
<path d="M91.2679 127.312V127.566C91.7743 130.302 93.1439 133.072 95.4803 134.723C97.8167 136.374 101.177 136.674 103.491 135.012C105.206 133.776 106.149 131.675 106.449 129.563C106.736 127.462 106.46 125.314 106.184 123.213V123.179C101.546 125.568 96.4586 127.023 91.2679 127.312Z" fill="#FFFBF8"/>
<path d="M89.4265 127.773C90.048 127.773 90.6695 127.762 91.291 127.727C96.4126 127.438 101.615 125.995 106.357 123.548C114.609 119.323 120.985 112.5 124.311 104.361C124.403 104.153 124.299 103.911 124.081 103.819C123.862 103.726 123.632 103.83 123.54 104.05C120.283 112.015 114.045 118.676 105.965 122.809C101.327 125.199 96.24 126.619 91.2334 126.896C90.2437 126.942 89.2309 126.954 88.218 126.919C84.3049 126.78 80.4148 125.961 76.6398 124.495C66.224 120.443 57.9604 111.934 54.5536 101.741C54.4846 101.521 54.2544 101.406 54.0242 101.475C53.8055 101.544 53.6904 101.787 53.7595 102.006C57.2468 112.431 65.6945 121.124 76.329 125.268C80.1846 126.769 84.1783 127.6 88.172 127.75C88.5748 127.762 88.9892 127.773 89.392 127.773H89.4265Z" fill="#25221E"/>
<path d="M82.7281 136.836C84.1667 136.836 85.6399 136.443 86.9059 135.647C88.9661 134.342 90.5198 132.114 91.3024 129.39C92.062 131.791 93.4547 133.811 95.2386 135.07C97.8282 136.905 101.396 137.032 103.732 135.358C105.378 134.169 106.518 132.08 106.851 129.632C107.151 127.473 106.863 125.28 106.587 123.167C106.552 122.936 106.368 122.786 106.126 122.809C105.896 122.844 105.746 123.052 105.77 123.271C106.046 125.326 106.322 127.462 106.034 129.517C105.723 131.745 104.711 133.627 103.249 134.689C101.2 136.155 98.0238 136.039 95.7105 134.389C93.6848 132.957 92.2232 130.44 91.6822 127.496C91.6477 127.3 91.4751 127.162 91.2794 127.162C91.0722 127.162 90.9111 127.312 90.8766 127.508C90.3587 130.787 88.7589 133.488 86.4686 134.943C83.879 136.57 80.3687 136.316 78.4812 134.354C77.2037 133.061 76.7893 131.272 76.6512 130.013C76.4901 128.432 76.6512 126.827 76.8699 125.049C76.8929 124.818 76.7318 124.61 76.5131 124.587C76.2829 124.564 76.0758 124.726 76.0527 124.945C75.8341 126.769 75.6614 128.42 75.8341 130.094C75.9837 131.491 76.4556 133.465 77.8942 134.931C79.1027 136.189 80.8866 136.836 82.7396 136.836H82.7281Z" fill="#25221E"/>
<path d="M115.034 63.8407C115.126 63.8407 115.207 63.8176 115.288 63.7599C115.472 63.6214 115.506 63.3559 115.368 63.1827C112.261 59.0267 107.323 56.1983 102.167 55.6211C101.914 55.5865 101.73 55.7597 101.707 55.9905C101.684 56.2214 101.845 56.4292 102.075 56.4523C107.001 57.0064 111.72 59.7194 114.701 63.6906C114.781 63.7945 114.908 63.8523 115.034 63.8523V63.8407Z" fill="#25221E"/>
<path d="M64.4515 65.4223C64.6011 65.4223 64.7393 65.3415 64.8198 65.2029C67.2252 60.6891 72.0706 57.6991 77.1807 57.5836C77.4109 57.5836 77.595 57.3874 77.5835 57.1565C77.5835 56.9256 77.3764 56.764 77.1577 56.7524C71.7599 56.8679 66.6268 60.031 64.0832 64.8104C63.9797 65.0182 64.0487 65.2607 64.2559 65.3761C64.3134 65.4107 64.3825 65.4223 64.4515 65.4223Z" fill="#25221E"/>
<path d="M90.5659 227.482C90.5774 226.028 90.5889 224.561 90.6004 223.095C90.6004 222.495 90.6004 221.906 90.6004 221.329H90.5544C86.4802 212.659 78.8841 205.709 69.8378 202.639C66.5117 201.507 62.5755 200.976 59.7558 203.066C57.8683 204.486 56.8785 206.887 56.7979 209.265C56.7058 211.632 57.4309 213.964 58.4322 216.111C61.1714 221.987 66.0513 226.813 71.9555 229.468C77.7332 232.077 84.4315 232.562 90.5314 230.818C90.5314 229.699 90.5429 228.602 90.5429 227.482H90.5659Z" fill="#58BBA5"/>
<path d="M90.6004 223.107H90.6119C90.6119 223.107 103.537 223.349 111.029 220.498C117.198 218.143 122.953 214.056 125.911 208.145C127.177 205.64 127.902 202.627 126.831 200.018C125.876 197.686 123.609 196.082 121.169 195.458C118.74 194.823 116.162 195.077 113.699 195.62C103.928 197.779 94.6976 205.19 90.6464 214.368H90.6234C90.6234 216.7 90.6004 219.009 90.5889 221.341C90.5889 221.929 90.5773 222.507 90.5889 223.107H90.6004Z" fill="#58BBA5"/>
<path d="M89.7603 290.365C89.9905 290.365 90.1746 290.18 90.1746 289.961C90.4739 275.877 90.7731 253.226 90.9572 230.83C90.9572 230.276 90.9572 229.722 90.9572 229.168C90.9572 228.614 90.9572 228.06 90.9572 227.494L90.9918 223.119C90.9918 222.818 90.9918 222.518 90.9918 222.23C90.9918 221.93 90.9918 221.641 90.9918 221.352L91.0263 214.391C91.1184 193.057 91.0838 164.254 90.4393 148.161C90.4393 147.93 90.1976 147.791 90.0135 147.757C89.7833 147.757 89.6107 147.965 89.6107 148.184C90.2667 164.254 90.2897 193.045 90.1976 214.368L90.1631 221.329C90.1631 221.618 90.1631 221.906 90.1631 222.207C90.1631 222.507 90.1631 222.807 90.1631 223.107L90.1286 227.482C90.1286 228.037 90.1286 228.591 90.1286 229.145C90.1286 229.699 90.1286 230.253 90.1286 230.819C89.9444 253.203 89.6452 275.865 89.3459 289.938C89.3459 290.168 89.5186 290.353 89.7488 290.365H89.7603Z" fill="#464644"/>
<path d="M83.1655 232.25C85.709 232.25 88.241 231.904 90.658 231.211C90.8766 231.153 91.0032 230.923 90.9457 230.703C90.8882 230.484 90.658 230.357 90.4393 230.415C84.4775 232.123 77.8137 231.638 72.1397 229.087C66.3505 226.489 61.5052 221.699 58.8235 215.938C57.6726 213.479 57.1547 211.297 57.2353 209.288C57.3158 206.864 58.3516 204.671 60.032 203.412C62.8402 201.323 66.8569 202.062 69.7342 203.043C78.6424 206.067 86.1003 212.809 90.2091 221.525C90.3127 221.733 90.5544 221.814 90.7616 221.722C90.9687 221.618 91.0608 221.375 90.9572 221.168C86.7564 212.244 79.1258 205.352 69.999 202.258C65.6024 200.757 61.9886 200.93 59.5371 202.754C57.6611 204.174 56.4987 206.61 56.4181 209.277C56.3375 211.424 56.8785 213.721 58.0869 216.307C60.8491 222.253 65.8556 227.194 71.8174 229.872C75.3622 231.465 79.2754 232.273 83.177 232.273L83.1655 232.25Z" fill="#464644"/>
<path d="M90.6119 223.522C90.6119 223.522 90.7385 223.522 90.9341 223.522C95.9291 223.522 105.194 223.176 111.179 220.89C118.211 218.212 123.574 213.756 126.279 208.341C127.844 205.236 128.178 202.223 127.211 199.868C126.279 197.571 124.058 195.77 121.272 195.065C119.097 194.5 116.657 194.546 113.619 195.216C103.698 197.409 94.3178 205.04 90.2781 214.194C90.186 214.402 90.2781 214.645 90.4853 214.737C90.6924 214.829 90.9341 214.737 91.0262 214.529C94.9624 205.594 104.112 198.159 113.791 196.024C116.703 195.389 119.017 195.331 121.065 195.862C123.597 196.508 125.6 198.113 126.44 200.168C127.614 203.031 126.371 206.275 125.531 207.949C122.918 213.179 117.705 217.485 110.868 220.094C106.587 221.721 99.3128 222.657 90.9111 222.668C90.4738 222.668 90.4047 222.668 90.2896 222.807C90.14 222.98 90.1515 223.234 90.3242 223.395C90.4047 223.465 90.4968 223.499 90.6004 223.499L90.6119 223.522Z" fill="#464644"/>
<path d="M90.5659 227.898C90.658 227.898 90.7615 227.863 90.8421 227.794C91.0147 227.644 91.0378 227.378 90.8881 227.205C84.2588 219.517 75.7766 213.433 66.3851 209.623C66.1779 209.531 65.9362 209.635 65.8441 209.854C65.7636 210.062 65.8556 210.304 66.0743 210.397C75.3507 214.16 83.7064 220.163 90.2551 227.759C90.3357 227.852 90.4508 227.898 90.5659 227.898Z" fill="#464644"/>
<path d="M90.681 221.075C90.8076 221.075 90.9227 221.018 91.0033 220.914C97.0226 213.11 105.839 207.141 115.196 204.532C115.414 204.474 115.541 204.244 115.483 204.024C115.426 203.805 115.196 203.678 114.977 203.736C105.459 206.391 96.4817 212.463 90.3588 220.406C90.2207 220.59 90.2552 220.844 90.4278 220.983C90.5084 221.041 90.589 221.075 90.681 221.075Z" fill="#464644"/>
<path d="M77.8022 49.664C77.8022 49.664 77.8597 49.664 77.8942 49.664C78.1129 49.6063 78.251 49.3869 78.205 49.1676L71.1383 19.4062C71.0808 19.1868 70.8736 19.0367 70.6434 19.0945C70.4248 19.1522 70.2867 19.3715 70.3327 19.5909L77.3993 49.3523C77.4454 49.5486 77.618 49.6756 77.8022 49.6756V49.664Z" fill="#25221E"/>
<path d="M55.1982 63.8983C55.3018 63.8983 55.4053 63.8637 55.4859 63.7829C55.647 63.6213 55.6586 63.3673 55.4974 63.1941L35.2297 41.7331C35.0686 41.5715 34.8039 41.5599 34.6427 41.7216C34.4816 41.8832 34.4701 42.1372 34.6312 42.3103L54.8989 63.7713C54.9795 63.8522 55.0946 63.8983 55.1982 63.8983Z" fill="#25221E"/>
<path d="M42.8833 86.3521C43.0559 86.3521 43.2171 86.2482 43.2746 86.075C43.3437 85.8557 43.2286 85.6248 43.0099 85.544L15.2727 76.17C15.054 76.1007 14.8239 76.2161 14.7433 76.4355C14.6627 76.6548 14.7893 76.8857 15.008 76.9665L42.7452 86.3406C42.7452 86.3406 42.8373 86.3636 42.8833 86.3636V86.3521Z" fill="#25221E"/>
<path d="M44.4715 113.47C44.7017 113.47 44.8859 113.285 44.8859 113.066C44.8859 112.835 44.7132 112.65 44.4831 112.639L14.1218 111.9C13.8916 111.865 13.7075 112.073 13.6959 112.304C13.6844 112.535 13.8686 112.719 14.0988 112.731L44.46 113.47H44.4715Z" fill="#25221E"/>
<path d="M35.575 152.548C35.6671 152.548 35.7706 152.513 35.8512 152.444L56.5793 134.019C56.7519 133.869 56.7634 133.603 56.6138 133.43C56.4642 133.257 56.1995 133.245 56.0268 133.396L35.2988 151.82C35.1261 151.97 35.1146 152.236 35.2642 152.409C35.3448 152.502 35.4599 152.548 35.575 152.548Z" fill="#25221E"/>
<path d="M67.7202 174.02C67.8813 174.02 68.0424 173.916 68.1115 173.755C71.4491 164.854 74.4991 155.688 77.1577 146.521C77.2152 146.302 77.1002 146.071 76.8815 146.002C76.6628 145.933 76.4326 146.06 76.3636 146.279C73.7049 155.422 70.6665 164.565 67.3288 173.443C67.2483 173.662 67.3519 173.893 67.5705 173.974C67.6166 173.997 67.6626 173.997 67.7202 173.997V174.02Z" fill="#25221E"/>
<path d="M109.522 173.501C109.522 173.501 109.568 173.501 109.602 173.501C109.832 173.454 109.97 173.247 109.936 173.016L104.998 146.683C104.952 146.464 104.757 146.302 104.515 146.348C104.285 146.394 104.147 146.602 104.181 146.833L109.119 173.166C109.153 173.362 109.326 173.501 109.522 173.501Z" fill="#25221E"/>
<path d="M149.608 152.998C149.723 152.998 149.838 152.952 149.919 152.859C150.068 152.686 150.045 152.421 149.873 152.271L128.466 133.857C128.293 133.707 128.028 133.73 127.879 133.904C127.729 134.077 127.752 134.342 127.925 134.492L149.332 152.906C149.412 152.975 149.505 153.009 149.597 153.009L149.608 152.998Z" fill="#25221E"/>
<path d="M165.399 120.073C165.594 120.073 165.767 119.935 165.802 119.738C165.848 119.508 165.698 119.3 165.468 119.254L139.952 114.347C139.722 114.301 139.515 114.451 139.469 114.682C139.422 114.913 139.572 115.121 139.802 115.167L165.318 120.073C165.318 120.073 165.364 120.073 165.399 120.073Z" fill="#25221E"/>
<path d="M141.989 86.3869C141.989 86.3869 142.058 86.3869 142.093 86.3753L166.009 79.9682C166.227 79.9105 166.365 79.6796 166.296 79.4602C166.239 79.2409 166.009 79.1139 165.79 79.1716L141.874 85.5788C141.655 85.6365 141.517 85.8674 141.586 86.0867C141.632 86.2714 141.805 86.3984 141.989 86.3984V86.3869Z" fill="#25221E"/>
<path d="M126.187 60.0772C126.291 60.0772 126.394 60.0426 126.475 59.9617L149.539 38.1544C149.7 37.9928 149.712 37.7388 149.551 37.5656C149.401 37.404 149.136 37.3925 148.964 37.5541L125.899 59.3614C125.738 59.5231 125.727 59.777 125.888 59.9502C125.968 60.031 126.083 60.0772 126.187 60.0772Z" fill="#25221E"/>
<path d="M102.42 48.4521C102.616 48.4521 102.789 48.3135 102.823 48.1173L109.326 15.0772C109.372 14.8463 109.222 14.6385 109.004 14.5924C108.773 14.5462 108.566 14.6963 108.52 14.9156L102.017 47.9557C101.971 48.1865 102.121 48.3943 102.34 48.4405C102.363 48.4405 102.397 48.4405 102.42 48.4405V48.4521Z" fill="#25221E"/>
<path d="M90.4278 89.896C91.0378 102.641 97.2643 112.685 104.331 112.35C111.398 112.003 116.634 101.406 116.024 88.6607C115.414 75.9157 109.188 65.8721 102.121 66.2069C95.0545 66.5532 89.8178 77.151 90.4278 89.896Z" fill="#FFFBF8"/>
<path d="M94.6057 106.255C91.947 101.949 90.3127 96.1533 90.0135 89.9193C89.392 76.9665 94.8128 66.1494 102.098 65.7915C102.225 65.7915 102.34 65.7915 102.455 65.7915C109.591 65.7915 115.817 75.9159 116.427 88.6494C116.726 94.8834 115.656 100.806 113.423 105.343C111.144 109.96 107.922 112.592 104.342 112.766C104.216 112.766 104.089 112.766 103.974 112.766C100.533 112.766 97.2183 110.468 94.6057 106.243V106.255ZM102.133 66.6227C95.3077 66.9575 90.2322 77.3821 90.8422 89.8731C91.1299 95.9685 92.7182 101.625 95.3077 105.804C97.8513 109.914 101.062 112.096 104.308 111.923C107.565 111.761 110.546 109.291 112.675 104.962C114.85 100.552 115.886 94.7679 115.598 88.6725C115.011 76.3777 109.153 66.6112 102.455 66.6112C102.34 66.6112 102.236 66.6112 102.121 66.6112L102.133 66.6227Z" fill="#25221E"/>
<path d="M99.0137 72.9028C103.088 72.7065 106.771 77.128 108.371 83.4774L102.259 87.9451C100.878 88.961 101.028 91.0852 102.559 91.8817L108.808 95.1488C107.726 101.314 104.55 105.793 100.602 105.989C95.4228 106.243 90.8652 99.0393 90.4278 89.8961C89.9905 80.7645 93.8346 73.1567 99.0137 72.9028Z" fill="#25221E"/>
<path d="M78.7585 113.594C85.8249 113.252 91.0569 102.645 90.4444 89.9016C89.832 77.1584 83.607 67.105 76.5406 67.4467C69.4742 67.7884 64.2422 78.3958 64.8547 91.139C65.4671 103.882 71.6921 113.935 78.7585 113.594Z" fill="#FFFBF8"/>
<path d="M69.0322 107.49C66.3736 103.195 64.7392 97.3886 64.44 91.1546C63.8185 78.2018 69.2393 67.3847 76.5247 67.0269C76.6513 67.0269 76.7664 67.0269 76.8815 67.0269C84.0172 67.0269 90.2436 77.1513 90.8536 89.8848C91.1529 96.1187 90.0825 102.041 87.8497 106.578C85.5709 111.196 82.3483 113.828 78.769 114.001C78.6424 114.001 78.5158 114.001 78.4007 114.001C74.9594 114.001 71.6448 111.704 69.0322 107.478V107.49ZM76.5592 67.858C69.7342 68.1928 64.6702 78.6174 65.2687 91.1085C65.5564 97.2039 67.1447 102.861 69.7342 107.04C72.2778 111.15 75.4773 113.331 78.7344 113.158C81.9915 112.997 84.9724 110.526 87.1016 106.197C89.2769 101.787 90.3127 96.0033 90.025 89.9078C89.438 77.6131 83.5798 67.8465 76.8815 67.8465C76.7664 67.8465 76.6628 67.8465 76.5477 67.8465L76.5592 67.858Z" fill="#25221E"/>
<path d="M73.4287 74.1381C77.503 73.9419 81.1859 78.3634 82.7857 84.7128L76.6743 89.1805C75.2932 90.1964 75.4428 92.3205 76.9736 93.1171L83.2231 96.3842C82.1412 102.549 78.9647 107.028 75.017 107.224C69.8379 107.478 65.2802 100.275 64.8429 91.1315C64.4055 81.9999 68.2496 74.3921 73.4287 74.1381Z" fill="#25221E"/>
</g>
<defs>
<clipPath id="clip0_230_750">
<rect width="177" height="290.365" fill="white"/>
</clipPath>
</defs>
</svg>
