<svg width="21" height="21" viewBox="0 0 21 21" fill="none" xmlns="http://www.w3.org/2000/svg">
<path d="M20.5526 10.4982C20.5526 16.2972 16.016 20.9964 10.4147 21C4.78593 21 0.218563 16.2972 0.225411 10.5088C0.232258 4.70278 4.80305 -0.0141731 10.4044 -2.93104e-05C16.016 0.0141145 20.5457 4.70278 20.5492 10.4982H20.5526ZM3.90258 10.4982C3.90258 11.5024 3.90258 12.5066 3.90258 13.5108C3.90258 15.5864 5.41933 17.1776 7.43596 17.1953C9.40465 17.2094 11.3733 17.2094 13.3386 17.1953C15.3484 17.1811 16.8651 15.6289 16.8857 13.5568C16.9062 11.5024 16.9062 9.44449 16.8891 7.3901C16.872 5.4029 15.3073 3.8188 13.3831 3.81172C11.3802 3.80465 9.38068 3.80465 7.37775 3.81172C5.46042 3.8188 3.90258 5.43826 3.90258 7.41486C3.90258 8.44382 3.90258 9.46924 3.90258 10.4982Z" fill="black"/>
<path d="M3.90259 10.4982C3.90259 9.46922 3.90259 8.44379 3.90259 7.41483C3.90259 5.43824 5.46042 3.81877 7.37776 3.8117C9.38069 3.80463 11.3802 3.80463 13.3831 3.8117C15.3039 3.81877 16.872 5.40288 16.8891 7.39008C16.9062 9.44447 16.9062 11.5024 16.8857 13.5568C16.8651 15.6288 15.3484 17.1811 13.3386 17.1953C11.3699 17.2094 9.40123 17.2094 7.43596 17.1953C5.41934 17.1811 3.90259 15.5864 3.90259 13.5108C3.90259 12.5066 3.90259 11.5024 3.90259 10.4982ZM10.3839 4.97856C9.43204 4.97856 8.48365 4.97856 7.53183 4.97856C6.06986 4.98564 5.03587 6.03935 5.02902 7.54566C5.02217 9.51872 5.02217 11.4953 5.02902 13.4684C5.03587 14.9429 6.05617 16.0072 7.47705 16.0178C9.42177 16.0284 11.3665 16.0284 13.3112 16.0178C14.7116 16.0107 15.7421 14.9287 15.7456 13.4861C15.7456 11.513 15.7456 9.5364 15.7456 7.56334C15.7456 6.03935 14.7116 4.97856 13.2325 4.97503C12.2807 4.97503 11.3323 4.97503 10.3804 4.97503L10.3839 4.97856Z" fill="white"/>
<path d="M10.3838 4.97858C11.3357 4.97858 12.2841 4.97858 13.2359 4.97858C14.715 4.97858 15.7489 6.0429 15.7489 7.56689C15.7489 9.53995 15.7489 11.5165 15.7489 13.4896C15.7489 14.9287 14.715 16.0143 13.3146 16.0213C11.3699 16.032 9.42517 16.032 7.48044 16.0213C6.05956 16.0143 5.03584 14.9464 5.03242 13.4719C5.02557 11.4989 5.02557 9.52227 5.03242 7.54921C5.03927 6.0429 6.06983 4.98565 7.53522 4.98211C8.48704 4.97858 9.43544 4.98211 10.3873 4.98211L10.3838 4.97858ZM10.3873 14.1544C12.3594 14.1544 13.9617 12.5031 13.9583 10.4805C13.9549 8.51806 12.3217 6.85617 10.401 6.85263C8.47335 6.84909 6.87101 8.49685 6.86758 10.484C6.86758 12.5208 8.43226 14.1579 10.3873 14.1579V14.1544ZM13.8659 6.14898C13.4516 6.15605 13.1195 6.49903 13.1195 6.91981C13.1195 7.35473 13.4721 7.70833 13.8967 7.69419C14.3007 7.68004 14.6431 7.3123 14.6328 6.90567C14.6225 6.4955 14.2664 6.14544 13.8659 6.14898Z" fill="black"/>
<path d="M10.3873 14.1544C8.4323 14.1544 6.8642 12.5208 6.86762 10.4805C6.86762 8.49334 8.47339 6.84559 10.401 6.84913C12.3218 6.85266 13.9515 8.51809 13.9583 10.477C13.9618 12.4996 12.3594 14.1509 10.3873 14.1509V14.1544ZM8.06938 10.4947C8.06938 11.8419 9.11022 12.9239 10.4044 12.9204C11.6815 12.9204 12.7155 11.8348 12.7155 10.5053C12.7155 9.20407 11.6781 8.1256 10.4147 8.115C9.13761 8.10439 8.06938 9.18639 8.06938 10.4947Z" fill="white"/>
<path d="M13.8659 6.14901C14.2665 6.14548 14.6191 6.49554 14.6328 6.90571C14.6431 7.31234 14.3007 7.68008 13.8967 7.69422C13.4722 7.70837 13.1195 7.35831 13.1195 6.91985C13.1195 6.49907 13.4516 6.15609 13.8659 6.14901Z" fill="white"/>
<path d="M8.06934 10.4946C8.06934 9.18634 9.13757 8.10434 10.4147 8.11495C11.678 8.12555 12.7155 9.20402 12.7155 10.5052C12.7155 11.8348 11.6815 12.9168 10.4044 12.9203C9.11018 12.9203 8.06592 11.8418 8.06934 10.4946Z" fill="black"/>
</svg>
