<svg width="175" height="119" viewBox="0 0 175 119" fill="none" xmlns="http://www.w3.org/2000/svg">
<g clip-path="url(#clip0_230_379)">
<path d="M157.52 92.1899C154.35 90.9799 151.25 89.8899 148.17 88.8599C141.26 86.5799 134.42 84.6799 127.06 82.8699C131.4 69.42 128.61 53.9699 119.35 43.2999C110.1 32.6399 95.0899 27.2699 81.1699 29.6599C67.2399 32.0599 54.8899 42.1199 49.7199 55.2699C44.5699 52.2199 39.4199 49.4499 34.0099 47.0999C31.6999 46.0899 29.3299 45.1499 26.8999 44.3099C31.3799 27.3199 44.6199 13.2399 60.7099 6.22995C76.8099 -0.800052 95.4299 -1.09005 112.28 3.86995C130.54 9.22995 147.24 21.0199 156.55 37.6199C165.85 54.2099 166.94 75.6799 157.51 92.1899H157.52Z" fill="#EB5E62"/>
<path d="M157.52 92.1899C154.35 90.9799 151.25 89.8899 148.17 88.8599C141.26 86.5799 134.42 84.6799 127.06 82.8699C131.4 69.4199 128.61 53.9699 119.35 43.2999C110.1 32.6399 95.0899 27.2699 81.1699 29.6599C67.2399 32.0599 54.8899 42.1199 49.7199 55.2699C44.5699 52.2199 39.4199 49.4499 34.0099 47.0999C31.6999 46.0899 29.3299 45.1499 26.8999 44.3099C31.3799 27.3199 44.6199 13.2399 60.7099 6.22995C76.8099 -0.800052 95.4299 -1.09005 112.28 3.86995C130.54 9.22995 147.24 21.0199 156.55 37.6199C165.85 54.2099 166.94 75.6799 157.51 92.1899H157.52Z" stroke="#18223D" stroke-linecap="round" stroke-linejoin="round"/>
<path d="M148.16 88.86C144.86 87.77 141.59 86.76 138.25 85.82C134.59 84.79 130.89 83.82 127.04 82.87C131.38 69.42 128.59 53.97 119.33 43.3C110.08 32.64 95.0697 27.27 81.1497 29.66C67.2197 32.06 54.8697 42.12 49.6997 55.27C46.4197 53.32 43.1397 51.49 39.7897 49.83C37.8897 48.87 35.9597 47.96 33.9897 47.11C38.3397 34.97 47.6697 24.77 59.0697 18.63C71.4697 11.94 86.1197 9.89997 100.09 11.74C113.33 13.5 126.3 18.78 136 27.96C144.61 36.08 150.4 47.13 152.2 58.81C153.76 68.94 152.31 79.52 148.16 88.88V88.86Z" fill="#F59E1F"/>
<path d="M148.16 88.86C144.86 87.77 141.59 86.76 138.25 85.82C134.59 84.79 130.89 83.82 127.04 82.87C131.38 69.42 128.59 53.97 119.33 43.3C110.08 32.64 95.0697 27.27 81.1497 29.66C67.2197 32.06 54.8697 42.12 49.6997 55.27C46.4197 53.32 43.1397 51.49 39.7897 49.83C37.8897 48.87 35.9597 47.96 33.9897 47.11C38.3397 34.97 47.6697 24.77 59.0697 18.63C71.4697 11.94 86.1197 9.89997 100.09 11.74C113.33 13.5 126.3 18.78 136 27.96C144.61 36.08 150.4 47.13 152.2 58.81C153.76 68.94 152.31 79.52 148.16 88.88V88.86Z" stroke="#18223D" stroke-linecap="round" stroke-linejoin="round"/>
<path d="M138.26 85.82C134.6 84.79 130.9 83.82 127.05 82.87C131.39 69.42 128.6 53.97 119.34 43.3C110.09 32.64 95.0798 27.27 81.1598 29.66C67.2298 32.06 54.8798 42.12 49.7098 55.27C46.4298 53.32 43.1498 51.49 39.7998 49.83C46.0898 38.54 56.3698 29.48 68.4398 24.85C82.1798 19.58 98.0698 20.08 111.45 26.24C123.18 31.65 132.99 41.41 137.78 53.41C141.9 63.68 142.16 75.52 138.25 85.83L138.26 85.82Z" fill="#7DC8C0"/>
<path d="M138.26 85.82C134.6 84.79 130.9 83.82 127.05 82.87C131.39 69.42 128.6 53.97 119.34 43.3C110.09 32.64 95.0798 27.27 81.1598 29.66C67.2298 32.06 54.8798 42.12 49.7098 55.27C46.4298 53.32 43.1498 51.49 39.7998 49.83C46.0898 38.54 56.3698 29.48 68.4398 24.85C82.1798 19.58 98.0698 20.08 111.45 26.24C123.18 31.65 132.99 41.41 137.78 53.41C141.9 63.68 142.16 75.52 138.25 85.83L138.26 85.82Z" stroke="#18223D" stroke-linecap="round" stroke-linejoin="round"/>
<path d="M156.51 85.5599C159.22 85.9799 162.01 86.4199 164.41 87.7399C166.81 89.0599 168.79 91.4799 168.7 94.0999C168.61 96.7199 166.18 98.8599 163.57 97.9899C166.61 99.3899 169.77 100.91 171.81 103.49C173.86 106.07 174.37 110.05 172.04 112.27C170.66 113.58 168.57 114.02 166.6 113.87C164.63 113.72 162.54 113.38 160.68 112.71C162.21 113.97 161.48 116.55 159.8 117.52C158.12 118.49 155.97 118.32 153.99 118.05C143.67 116.65 133.56 113.38 124.4 108.42C123.07 107.7 121.73 106.92 120.78 105.78C119.82 104.64 119.32 103.05 119.87 101.72C120.42 100.4 122.57 99.1099 123.86 99.8899C119.56 99.1399 115.46 97.1799 112.22 94.3099C110.82 93.0699 109.53 91.5799 109.17 89.7999C108.67 87.3699 110.12 84.8699 112.28 83.5999C114.44 82.3299 117.17 82.1299 119.72 82.5599C122.27 82.9799 124.68 83.9799 127.07 84.9599C125.99 83.8299 125.82 81.6599 126.51 80.3199C127.2 78.9799 128.66 78.0999 130.21 77.8899C131.76 77.6799 133.39 78.0999 134.76 78.8999C134.52 77.1899 135.97 75.5799 137.56 74.8299C139.15 74.0899 141.02 74.0599 142.81 74.2399C146.62 74.6099 150.36 75.8099 153.66 77.7299C155.03 78.5199 156.38 79.4999 157.09 80.8699C157.8 82.2399 157.74 84.6699 156.5 85.5799L156.51 85.5599Z" fill="white" stroke="#18223D" stroke-linecap="round" stroke-linejoin="round"/>
<path d="M52.26 67.18C54.45 69.85 54.4 73.78 52.15 75.96C49.9 78.14 45.25 78.27 42.35 76.29C42.69 78.62 40.62 80.55 38.24 80.98C35.86 81.41 33.29 80.7 30.89 79.86C22.96 77.08 15.49 72.79 9.00995 67.45C7.28995 66.03 5.52995 64.37 5.12995 62.34C4.71995 60.31 6.60995 57.8 8.73995 58.43C6.64995 57.07 4.51995 55.69 2.88995 53.85C1.25995 52.01 0.179953 49.61 0.609953 47.42C1.17995 44.53 4.26995 42.78 7.42995 42.56C10.59 42.33 13.82 43.32 16.96 44.28C15.8 42.63 16.82 39.9 18.25 38.71C19.68 37.53 21.83 37.26 23.84 37.58C26.98 38.08 29.9 39.84 32.26 42.02C34.6199 44.19 36.48 46.77 38.33 49.33C41.67 49.55 45.23 49.95 48.36 51.34C51.5 52.73 54.34 55.23 55.3 58.32C56.25 61.4 55.37 66.3 52.28 67.18H52.26Z" fill="white" stroke="#18223D" stroke-linecap="round" stroke-linejoin="round"/>
</g>
<defs>
<clipPath id="clip0_230_379">
<rect width="174.07" height="118.75" fill="white"/>
</clipPath>
</defs>
</svg>
