<?xml version="1.0" ?><svg viewBox="0 0 64 64" xmlns="http://www.w3.org/2000/svg"><title/><g data-name="Outline putus" id="Outline_putus"><path d="M41.8906,15.2275a1,1,0,1,0-.8613,1.8047,20.9992,20.9992,0,1,1-17.252-.3642,18.5173,18.5173,0,0,1,1.7618-.6568,21.366,21.366,0,0,1,11.8427-.3134l.06.02a.9972.9972,0,0,0,1.2666-.6294.96.96,0,0,0,.03-.2417l2.19-5.4751A1,1,0,0,0,40.707,8.293l-3-3-.01-.0069a1.0226,1.0226,0,0,0-.1561-.1043.9909.9909,0,0,0-.1739-.1088c-.0058-.0023-.0094-.0073-.0152-.01a.9569.9569,0,0,0-.1613-.0257A.9747.9747,0,0,0,37,5H27a.9993.9993,0,0,0-.707.293l-3,3a1,1,0,0,0-.15,1.2216l2.6145,4.3577c-.2763.0777-.5559.1464-.8284.2346a20.3172,20.3172,0,0,0-1.94.7232,23.0013,23.0013,0,1,0,18.9023.3974ZM26.8215,7.5924,27.496,9H25.4136ZM28.7545,7h6.8023l-.75,2h-5.094Zm9.831,2H36.9432l.448-1.1946Zm-1.4968,4.5839q-.8645-.1958-1.7429-.3243L36.1932,11h1.9292ZM34.0568,11l-.7676,2.0469q-.8261-.0456-1.6531-.0327L30.671,11ZM26.366,11h2.0882l1.0291,2.1479q-.8463.0915-1.6811.2455Z"/><path d="M19.6875,24.2358a1,1,0,0,0-1.4092.1148,17.9862,17.9862,0,1,0,3.1348-2.9092,1,1,0,1,0,1.1777,1.6162,16.0065,16.0065,0,1,1-2.789,2.5879A.9994.9994,0,0,0,19.6875,24.2358Z"/></g></svg>