<svg width="31" height="44" viewBox="0 0 31 44" fill="none" xmlns="http://www.w3.org/2000/svg">
<path d="M12.1573 10.1863C11.5322 9.06698 11.0182 8.05819 10.4209 7.10467C9.96254 6.35844 9.8792 5.66749 10.2959 4.89362C10.9766 3.59462 11.6433 2.28181 12.3101 0.968994C12.6713 0.291858 13.2269 -0.0259808 13.9909 0.00165741C16.2551 0.0983911 18.5193 0.181306 20.7835 0.319497C22.631 0.430049 24.4785 0.637336 26.326 0.747889C26.965 0.789346 27.465 0.996632 27.7706 1.56322C28.5624 3.04186 29.3542 4.5205 30.0904 6.02678C30.4933 6.85593 30.2988 7.39487 29.5487 7.9891C28.2429 9.03935 26.9233 10.0896 25.6037 11.1122C25.1869 11.43 24.9508 11.7341 25.0619 12.3007C25.2564 13.3233 25.0341 14.2768 24.3674 15.0921C24.2979 15.175 24.2701 15.2718 24.2285 15.3547C24.2285 15.3823 24.2285 15.4238 24.2285 15.5896C24.4091 15.7416 24.6591 15.9765 24.923 16.1838C28.8125 19.3208 30.8266 23.3421 30.9378 28.3446C31.0906 35.2265 26.326 41.9012 18.9499 43.5594C9.68472 45.6461 1.6558 39.5105 0.294491 31.5921C-0.81678 25.1801 1.21129 19.8459 6.47593 15.8936C7.55942 15.0783 8.86516 14.567 10.0876 13.9589C10.4487 13.7793 10.796 13.6411 10.7543 13.1713C10.671 11.9552 11.0738 10.9602 12.1851 10.1725L12.1573 10.1863ZM15.2689 14.8019C7.92058 14.7328 1.41965 20.6336 1.41965 28.2893C1.41965 36.0142 7.51775 42.1637 15.2827 42.1499C23.2283 42.1499 29.0764 35.9589 29.0625 28.4828C29.0625 20.5507 22.5616 14.8295 15.2689 14.8019ZM22.8533 14.5946C23.0061 14.2215 23.2005 13.8484 23.3117 13.4615C23.5061 12.812 23.3811 12.5218 22.756 12.2177C22.3254 12.0105 21.867 11.8308 21.4086 11.7341C20.6724 11.5682 19.9223 11.4577 19.1722 11.3748C18.0748 11.2642 16.9774 11.0984 15.8939 11.1537C14.9494 11.1951 13.9909 11.4162 13.088 11.7064C12.3518 11.9414 12.2406 12.3697 12.4629 13.1436C14.1993 13.1436 15.9773 12.964 17.6859 13.1989C19.3944 13.4338 21.0475 14.0833 22.8533 14.5946ZM14.4076 1.75668C15.1577 3.0004 15.8801 4.20266 16.9774 5.33583C17.7831 4.10593 18.6166 3.11095 19.1305 1.79814C17.5192 1.45266 16.019 1.38357 14.4076 1.75668ZM17.9776 6.31698C19.6167 6.28935 20.9919 6.74538 22.4088 6.27553C22.0615 5.03181 21.0336 3.45643 20.1029 2.80693C19.3944 3.88482 18.686 4.97653 17.9776 6.3308V6.31698ZM27.5623 7.5607L27.4234 7.29814C26.451 7.35342 25.4648 7.36724 24.4924 7.47779C24.2563 7.50543 24.034 7.83708 23.8534 8.07201C23.4923 8.51422 23.1589 8.99789 22.8116 9.45392C22.6588 9.66121 22.506 9.85467 22.3532 10.062C23.6034 10.8635 23.6867 10.8496 24.6452 10.0481C25.3536 9.45392 26.076 8.88734 26.7844 8.30693C27.0622 8.08583 27.2984 7.82327 27.5484 7.57452L27.5623 7.5607ZM17.283 7.60216C17.6164 8.1411 17.797 8.45894 17.9915 8.76296C18.4776 9.5092 19.6723 9.99286 20.5613 9.81322C20.6863 9.78558 20.853 9.74412 20.9224 9.64739C21.3947 9.03935 21.8531 8.43131 22.4643 7.61598C20.9919 7.5607 19.7417 7.50543 18.5054 7.47779C18.1859 7.47779 17.8526 7.53306 17.283 7.58834V7.60216ZM16.4357 9.42628C16.1301 8.7906 15.9078 8.36221 15.7411 7.93382C15.5606 7.45015 15.2133 7.25668 14.7271 7.20141C14.1854 7.14613 13.6436 7.03558 13.1019 6.95266C12.8102 6.91121 12.5324 6.86975 12.0184 6.80065C12.4073 7.76799 12.699 8.55568 13.0463 9.30191C13.1158 9.46774 13.4214 9.63357 13.6158 9.61975C14.491 9.59211 15.3661 9.49538 16.4357 9.41246V9.42628ZM25.6315 2.39236C24.2007 2.03306 22.9227 1.7705 21.3947 1.95015C22.1587 3.19387 22.8255 4.2994 23.6034 5.55693C24.4924 4.54814 25.1036 3.59462 25.6315 2.39236ZM13.3936 2.48909C12.6852 3.56698 12.1851 4.39613 11.8934 5.43256C13.2408 5.79186 14.4493 6.13734 15.7134 6.08206C15.755 5.99915 15.7967 5.93005 15.8523 5.84714C15.0883 4.79688 14.3243 3.74663 13.4075 2.48909H13.3936ZM27.9512 6.1097C27.9234 5.18382 27.4234 4.14739 26.6872 3.48407C26.1454 4.32703 25.6176 5.15618 24.9925 6.13734C26.0899 6.31698 26.9789 6.1097 27.9512 6.1097Z" fill="black"/>
<path d="M15.1021 18.0356C21.1586 17.9388 26.1037 23.0381 26.1037 28.9803C26.1037 35.1436 21.0336 40.077 14.9632 40.0494C9.58747 40.0217 3.98944 36.0004 4.03112 29.0356C4.07279 22.3195 9.35132 17.9941 15.1021 18.0356ZM24.1729 29.0632C24.1729 24.2403 20.4779 19.8873 14.9493 19.832C9.78194 19.7768 5.68413 23.8949 5.69802 28.8836C5.69802 34.1348 9.93474 38.1285 14.9216 38.1285C20.4501 38.1285 24.1173 33.7479 24.1729 29.0632Z" fill="black"/>
</svg>
