<svg width="36" height="38" viewBox="0 0 36 38" fill="none" xmlns="http://www.w3.org/2000/svg">
<path d="M16.8031 3.10727C16.8448 2.09847 16.8309 1.54571 16.9004 0.992944C17.0254 -0.057307 17.6088 -0.306051 18.4839 0.398723C19.2201 0.992944 19.873 1.72536 20.5259 2.43013C20.9287 2.85852 21.276 3.34219 21.7066 3.88113C22.04 3.77058 22.3456 3.67385 22.6234 3.54948C24.2486 2.85852 25.86 2.15375 27.4852 1.49043C27.8186 1.35224 28.2075 1.29696 28.5687 1.22787C29.0549 1.13114 29.5966 1.20023 29.8328 1.69772C29.9995 2.0432 29.9995 2.56832 29.8744 2.92762C29.6939 3.48038 29.3466 3.95023 29.0688 4.46154C28.6798 5.18013 28.2909 5.8849 27.8464 6.71405C28.6243 7.01807 29.1938 7.23917 29.7633 7.4741C32.6248 8.62108 34.5418 10.6387 35.5002 13.6374C35.8614 14.7982 36.0003 15.9314 35.6392 16.9816C35.2224 18.1977 34.764 19.4276 34.1112 20.5193C31.3191 25.1764 27.8464 29.1977 23.6235 32.5005C21.9705 33.7995 20.1925 34.9603 18.3589 36.0105C17.3865 36.5633 16.2197 36.812 15.0945 37.1022C12.9553 37.6412 10.8717 37.1299 8.9131 35.7065C6.37107 33.8548 4.37078 31.6022 3.41231 28.562C2.5094 25.6877 1.53705 22.8271 0.773049 19.9251C-0.366003 15.5583 -0.31045 11.3573 1.37035 7.44646C2.3566 5.16631 4.02352 3.52184 5.94046 2.11229C6.91282 1.3937 8.06575 1.1035 9.3576 1.14495C11.3857 1.21405 13.386 1.6148 15.3585 2.3334C15.7752 2.48541 16.1502 2.76179 16.7892 3.12108L16.8031 3.10727ZM13.261 3.86732C13.2471 3.77058 13.2332 3.66003 13.2054 3.5633C11.8441 2.98289 10.4411 2.8447 9.0659 2.88616C8.32969 2.9138 7.53789 3.09345 6.96837 3.48038C5.42648 4.54445 4.06518 5.82963 3.21784 7.59847C1.67595 10.7907 1.46759 14.3284 2.32882 17.9628C3.13449 21.3761 4.3708 24.748 5.4265 28.1336C6.25995 30.8007 8.16299 32.611 10.3855 34.1311C11.4829 34.8774 12.6358 35.1123 13.8721 34.9879C16.1502 34.7392 18.0394 33.7442 19.8035 32.4728C24.7904 28.8661 28.9299 24.4301 32.1942 19.1374C32.5554 18.5432 32.8471 17.8937 33.1527 17.258C33.8472 15.8485 33.7361 14.356 32.9027 12.8635C32.2359 11.6889 31.4997 10.5281 29.9994 10.1274C29.7216 11.3849 28.8743 11.5507 27.7769 11.3573C26.9435 11.2191 26.0961 11.2053 25.1793 11.1362C25.1237 11.8548 25.0821 12.449 25.0126 13.0432C24.9432 13.596 24.8459 14.204 24.2486 14.356C23.6652 14.508 23.1512 14.1625 22.7345 13.6927C22.1928 13.0708 21.6788 12.4213 21.1788 11.7857C20.4981 10.9289 20.2759 10.9012 19.5119 11.4678C18.8034 11.9929 18.0811 12.5457 17.3171 12.9741C17.0115 13.1537 16.4697 13.209 16.1502 13.0432C15.6224 12.7668 15.5529 12.1588 15.6641 11.6198C15.7474 11.1638 15.9002 10.7216 16.0252 10.2794C16.1502 9.83716 16.2614 9.40877 16.4281 8.81455C15.5807 8.4138 14.8306 8.04068 14.0666 7.6952C13.3165 7.34973 12.6359 6.94897 12.1914 6.18892C11.6496 5.26304 11.7468 4.7241 12.5525 4.24043C12.7887 4.10224 13.0526 3.99169 13.3026 3.86732H13.261ZM17.7338 10.5696C17.8033 10.6249 17.8727 10.6939 17.9422 10.7492C18.2756 10.5143 18.6228 10.2656 18.9562 10.0306C20.2897 9.04948 20.8593 9.14621 22.1094 10.5834C22.4428 10.9703 22.8179 11.3296 23.179 11.6889C23.5541 10.8736 23.693 9.97536 24.207 9.62988C24.7626 9.25676 25.6794 9.38113 26.4156 9.2844C26.4156 9.18767 26.4434 9.13239 26.4156 9.10475C26.36 8.98038 26.3184 8.84219 26.2211 8.74546C25.5127 7.88867 25.6099 7.1148 26.11 6.35475C26.5406 5.70526 26.9712 5.05576 27.3602 4.37862C27.4852 4.17134 27.4991 3.86732 27.6241 3.32837C26.2767 3.89495 25.1793 4.32335 24.1236 4.80701C21.9566 5.81581 21.9844 5.81581 20.2897 3.72912C19.7341 3.05199 19.234 2.23666 18.3172 1.91882C18.2478 2.07083 18.1644 2.18139 18.1644 2.29194C18.1783 2.67887 18.2339 3.07963 18.2756 3.46656C18.4284 4.84847 18.0255 5.3736 16.7059 5.45651C16.0808 5.49797 15.4279 5.42887 14.7889 5.44269C14.3861 5.44269 13.9972 5.51179 13.6082 5.55325C13.5943 5.64998 13.5804 5.76053 13.5665 5.85727C13.886 6.06455 14.1777 6.3133 14.5111 6.46531C15.1223 6.75551 15.7474 6.97661 16.3586 7.23917C17.9005 7.88867 18.0811 8.20651 17.7894 9.74043C17.7338 10.0168 17.7338 10.307 17.706 10.5834L17.7338 10.5696Z" fill="black"/>
</svg>
