<?xml version="1.0" ?><!DOCTYPE svg  PUBLIC '-//W3C//DTD SVG 1.1//EN'  'http://www.w3.org/Graphics/SVG/1.1/DTD/svg11.dtd'><svg enable-background="new 0 0 50 50" height="50px" version="1.1" viewBox="0 0 50 50" width="50px" xml:space="preserve" xmlns="http://www.w3.org/2000/svg" xmlns:xlink="http://www.w3.org/1999/xlink"><g id="Layer_13"/><g id="Layer_12"/><g id="Layer_11"/><g id="Layer_10"/><g id="Layer_9"/><g id="Layer_8"/><g id="Layer_7"/><g id="Layer_6"/><g id="Layer_5"/><g id="Layer_4"/><g id="Layer_3"/><g id="Layer_2"><path clip-rule="evenodd" d="M24.962,16.808c2.006,0.001,3.939-0.341,7.091-1.027   c4.514,0.036,7.977,1.819,8.368,6.682c0.734,9.131-8.322,19.595-15.352,24.204C18.045,42.063,8.87,31.533,9.575,22.401   c0.372-4.825,3.828-6.584,8.296-6.62C21.023,16.465,22.955,16.807,24.962,16.808 M11.688,5.263   c-0.528,3.307,0.069,5.651,2.487,8.12c-4.426,1.081-7.059,4.216-7.413,8.809C5.914,33.183,16.365,44.584,25.068,50   c8.7-5.406,19.048-16.781,18.165-27.758c-0.371-4.606-3.027-7.761-7.467-8.853c2.408-2.425,3.089-4.727,2.543-8.125   c-3.06-0.778-5.526-0.768-8.418,0.743C29.471,3.179,27.859,0.802,24.999,0c-2.862,0.802-4.471,3.177-4.892,6.006   C17.216,4.494,14.75,4.485,11.688,5.263z M14.98,22.44c0-0.752-0.657-1.364-1.468-1.364c-0.81,0-1.467,0.611-1.467,1.364   c0,1.115,0.773,2.199,1.467,2.826C14.207,24.639,14.98,23.555,14.98,22.44z M21.084,21.47c-0.81,0-1.468,0.61-1.468,1.363   c0,1.115,0.773,2.199,1.468,2.826c0.694-0.627,1.468-1.711,1.468-2.826C22.552,22.081,21.895,21.47,21.084,21.47z M29.59,21.47   c-0.81,0-1.467,0.61-1.467,1.363c0,1.115,0.773,2.199,1.467,2.826c0.695-0.627,1.468-1.711,1.468-2.826   C31.058,22.081,30.401,21.47,29.59,21.47z M37.162,21.865c-0.811,0-1.469,0.61-1.469,1.364c0,1.114,0.774,2.197,1.469,2.825   c0.694-0.628,1.467-1.711,1.467-2.825C38.63,22.475,37.973,21.865,37.162,21.865z M34.144,30.645c0-0.753-0.657-1.364-1.468-1.364   c-0.81,0-1.468,0.611-1.468,1.364c0,1.114,0.774,2.197,1.468,2.826C33.371,32.842,34.144,31.759,34.144,30.645z M25.104,33.076   c0.695-0.628,1.469-1.711,1.469-2.826c0-0.753-0.658-1.364-1.469-1.364c-0.81,0-1.467,0.611-1.467,1.364   C23.636,31.365,24.409,32.448,25.104,33.076z M17.591,33.471c0.695-0.628,1.468-1.712,1.468-2.826c0-0.753-0.658-1.364-1.468-1.364   c-0.811,0-1.468,0.611-1.468,1.364C16.123,31.759,16.897,32.842,17.591,33.471z M21.084,36.746c-0.81,0-1.468,0.611-1.468,1.363   c0,1.116,0.773,2.199,1.468,2.826c0.694-0.627,1.468-1.71,1.468-2.826C22.552,37.357,21.895,36.746,21.084,36.746z M28.122,38.11   c0,1.116,0.773,2.199,1.467,2.826c0.695-0.627,1.468-1.71,1.468-2.826c0-0.753-0.657-1.363-1.468-1.363   C28.779,36.746,28.122,37.357,28.122,38.11z M24.999,2.968c1.796,0.915,2.544,3.79,1.946,5.626l1.335,0.453l1.147,0.816   c1.173-1.646,4.32-2.466,6.289-2.268c-0.181,2.289-2.204,4.529-4.23,5.424c-2.999,0.652-4.801,0.978-6.524,0.978   c-1.722,0-3.524-0.327-6.521-0.977c-2.031-0.895-3.998-3.136-4.161-5.424c1.97-0.199,5.118,0.621,6.291,2.268l1.147-0.816   l1.335-0.453C22.455,6.758,23.204,3.883,24.999,2.968z" fill-rule="evenodd"/></g></svg>