<svg width="21" height="21" viewBox="0 0 21 21" fill="none" xmlns="http://www.w3.org/2000/svg">
<path d="M0.665955 10.4911C0.665955 4.70632 5.25728 -0.0141731 10.8689 -2.93341e-05C16.4771 0.0141145 21 4.70985 21 10.5123C21 16.3219 16.4429 21.0106 10.8141 20.9964C5.21621 20.9823 0.665955 16.2724 0.665955 10.4876V10.4911ZM11.5057 4.07338C11.5057 4.43405 11.5057 4.76643 11.5057 5.09881C11.5057 7.82149 11.5092 10.5477 11.5057 13.2704C11.5057 14.2781 10.8278 15.0843 9.89655 15.2328C9.01663 15.3743 8.11617 14.8439 7.82515 14.0094C7.49646 13.0653 7.83542 12.0858 8.67083 11.5943C9.12962 11.3221 9.62265 11.3044 10.1499 11.4176V9.00957C9.71509 9.03078 9.30081 9.0131 8.90022 9.08029C7.03082 9.38084 5.64076 10.9543 5.44218 12.9522C5.26072 14.7767 6.37003 16.5906 8.07509 17.2625C10.8244 18.348 13.7278 16.3254 13.7655 13.2881C13.7826 11.8454 13.7655 10.4027 13.7689 8.96007C13.7689 8.84338 13.7792 8.72669 13.786 8.58172C15.1692 9.45156 15.9841 9.70261 16.84 9.53996V7.28403C15.3541 7.40425 13.8202 6.06059 13.7244 4.06278H11.5023L11.5057 4.07338Z" fill="black"/>
<path d="M11.5057 4.07336H13.7278C13.8202 6.07118 15.3575 7.41484 16.8435 7.29461V9.55055C15.9875 9.7132 15.1726 9.45861 13.7894 8.59231C13.7826 8.73728 13.7723 8.85397 13.7723 8.97065C13.7723 10.4133 13.786 11.856 13.7689 13.2987C13.7312 16.336 10.8244 18.3586 8.0785 17.2731C6.37344 16.6012 5.26413 14.7838 5.44559 12.9627C5.64417 10.9614 7.03424 9.39143 8.90364 9.09088C9.30423 9.02723 9.71851 9.04137 10.1533 9.02016V11.4281C9.62607 11.315 9.13304 11.3327 8.67425 11.6049C7.83884 12.0964 7.49646 13.0759 7.82857 14.02C8.11959 14.8509 9.02348 15.3849 9.89997 15.2434C10.8313 15.0914 11.5057 14.2852 11.5092 13.281C11.516 10.5583 11.5092 7.83208 11.5092 5.1094C11.5092 4.77702 11.5092 4.44464 11.5092 4.08397L11.5057 4.07336Z" fill="white"/>
</svg>
