<svg width="21" height="21" viewBox="0 0 21 21" fill="none" xmlns="http://www.w3.org/2000/svg">
<path d="M20.3306 10.5089C20.3272 16.2901 15.7701 20.993 10.1687 21C4.56737 21.0036 0 16.2972 0 10.523C0 4.68516 4.54682 -0.014112 10.1893 3.18436e-05C15.794 0.0141756 20.334 4.71699 20.3306 10.5053V10.5089ZM4.02298 17.1211C4.15308 17.1105 4.23183 17.114 4.30373 17.0999C5.23843 16.9337 6.17313 16.7569 7.11126 16.6048C7.30642 16.573 7.53239 16.6048 7.7207 16.672C10.2338 17.5914 12.5585 17.2449 14.5238 15.3673C16.4994 13.4791 17.078 11.0888 16.2734 8.44034C15.1743 4.81599 11.391 2.96316 7.91243 4.26085C4.55025 5.51611 2.83492 9.46577 4.1839 12.9381C4.40645 13.5074 4.43726 14.0271 4.34482 14.607C4.21471 15.4238 4.12912 16.2477 4.01956 17.1211H4.02298Z" fill="black"/>
<path d="M4.02298 17.1211C4.13254 16.2512 4.21471 15.4238 4.34824 14.607C4.44068 14.0271 4.40987 13.5073 4.18732 12.938C2.83834 9.46573 4.55367 5.51608 7.91585 4.26081C11.3944 2.96312 15.1778 4.81596 16.2768 8.44031C17.0814 11.0887 16.5028 13.479 14.5272 15.3672C12.562 17.2448 10.2406 17.5913 7.72412 16.672C7.53581 16.6048 7.30984 16.573 7.11468 16.6048C6.17655 16.7533 5.24185 16.9337 4.30715 17.0998C4.23183 17.114 4.1565 17.1105 4.0264 17.1211H4.02298ZM5.34457 15.7739C6.03275 15.6501 6.66616 15.5263 7.30299 15.4309C7.46733 15.4061 7.66249 15.4309 7.80971 15.5016C8.90191 16.0214 10.0318 16.177 11.2096 15.9365C14.0958 15.3531 15.996 12.4253 15.4345 9.43744C14.8765 6.4531 12.0415 4.46944 9.15869 5.04579C5.57739 5.76359 3.71483 9.80518 5.44043 13.1219C5.58081 13.3942 5.62532 13.6452 5.58081 13.9422C5.49522 14.5221 5.42674 15.1091 5.34114 15.7739H5.34457Z" fill="white"/>
<path d="M5.34455 15.7738C5.43014 15.1091 5.49862 14.5221 5.58422 13.9422C5.62873 13.6487 5.58422 13.3941 5.44384 13.1219C3.71824 9.80163 5.58422 5.76357 9.1621 5.04577C12.045 4.46941 14.8799 6.45308 15.4379 9.43742C15.9995 12.4253 14.0958 15.3531 11.213 15.9365C10.0352 16.1734 8.90189 16.0214 7.81312 15.5016C7.66247 15.4309 7.47074 15.4061 7.30639 15.4309C6.66956 15.5263 6.03616 15.6501 5.34797 15.7738H5.34455ZM7.0051 9.10151C7.05988 9.28891 7.1352 9.62836 7.26188 9.94306C8.09387 12.0045 9.55241 13.3128 11.6718 13.8149C12.0655 13.9069 12.4045 13.7902 12.6749 13.4896C12.8359 13.3128 12.9831 13.1254 13.1269 12.9345C13.3015 12.7011 13.2741 12.4819 13.0515 12.3015C12.8324 12.1247 12.5996 11.9621 12.3839 11.7818C12.1374 11.5767 11.9148 11.605 11.6957 11.8207C11.5348 11.9798 11.3876 12.1601 11.2061 12.2945C11.1068 12.3652 10.9185 12.4182 10.8295 12.3687C9.85713 11.8207 9.05254 11.0922 8.5869 10.0244C8.49446 9.81223 8.47734 9.65665 8.68277 9.49046C8.92586 9.29245 9.03884 9.0025 8.93955 8.68426C8.82999 8.33421 8.69989 7.98768 8.54924 7.6553C8.40886 7.33707 8.20343 7.26989 7.92268 7.43961C7.36117 7.77199 7.03249 8.26702 7.00852 9.10858L7.0051 9.10151Z" fill="black"/>
<path d="M7.00513 9.10152C7.0291 8.25997 7.35778 7.76493 7.91929 7.43255C8.20347 7.26636 8.40547 7.33355 8.54585 7.64825C8.6965 7.98416 8.8266 8.32715 8.93616 8.67721C9.03545 8.99544 8.92247 9.28539 8.67938 9.4834C8.47052 9.64959 8.49107 9.80517 8.58351 10.0173C9.05257 11.0852 9.85374 11.8136 10.8261 12.3617C10.9151 12.4112 11.1069 12.3617 11.2027 12.2874C11.3842 12.1566 11.528 11.9727 11.6923 11.8136C11.9115 11.6014 12.134 11.5696 12.3805 11.7747C12.5962 11.955 12.829 12.1177 13.0482 12.2945C13.2741 12.4748 13.3015 12.694 13.1235 12.9274C12.9797 13.1184 12.8325 13.3093 12.6715 13.4826C12.3976 13.7831 12.0621 13.9033 11.6684 13.8079C9.54903 13.3058 8.09391 11.9975 7.25849 9.93601C7.13181 9.62131 7.05991 9.28185 7.00171 9.09445L7.00513 9.10152Z" fill="white"/>
</svg>
