<svg width="93" height="41" viewBox="0 0 93 41" fill="none" xmlns="http://www.w3.org/2000/svg">
<g clip-path="url(#clip0_563_18)">
<path d="M81.9492 27.1605C81.7569 27.1641 81.5646 27.173 81.3741 27.1962C81.2591 27.2105 81.1405 27.2463 81.0345 27.2928C80.4612 27.5449 80.3749 28.3048 80.8943 28.6571C81.0578 28.7679 81.2735 28.8323 81.4712 28.8538C82.2188 28.9342 83.1749 28.3317 82.8909 27.1587C82.5692 27.1587 82.2583 27.1551 81.9492 27.1587V27.1605Z" fill="black"/>
<path d="M69.3007 24.0082C68.2386 24.0064 67.5 24.6876 67.5036 25.6657C67.5071 26.6348 68.2709 27.3482 69.2989 27.3429C70.3323 27.3375 71.0835 26.6187 71.0745 25.6442C71.0656 24.6787 70.3395 24.0082 69.2989 24.0082H69.3007Z" fill="black"/>
<path d="M49.1544 14.274C49.0089 14.2776 48.8597 14.3205 48.7213 14.367C48.2972 14.5065 48.0815 14.7943 48.0654 15.2163C48.0492 15.6526 48.2648 15.9834 48.6764 16.1515C49.4743 16.4805 50.4933 16.071 50.7809 15.2646C50.8851 14.9713 50.8528 14.6316 50.8869 14.2704C50.2471 14.2704 49.7008 14.2633 49.1544 14.274Z" fill="black"/>
<path d="M17.5278 10.0649C16.631 10.1347 15.8798 10.8427 15.86 11.6545H19.7078C19.5317 10.5853 18.678 9.97733 17.526 10.0649H17.5278Z" fill="black"/>
<path d="M92.9946 36.7105C92.9946 34.6417 93 32.5711 92.991 30.5024C92.9892 30.075 92.9551 29.6441 92.8904 29.2221C92.7125 28.0509 92.2326 27.0318 91.3664 26.1878C89.934 24.7913 88.5125 23.3841 87.1161 21.9519C86.293 21.1062 85.3225 20.5537 84.1849 20.2765C82.447 19.8527 80.7074 19.91 78.9821 20.3409C78.2955 20.5125 77.6306 20.7736 76.9495 20.9971L76.4139 20.2175C76.3474 20.2068 76.3043 20.1925 76.2612 20.1925C74.4191 20.1907 72.577 20.1889 70.7331 20.1907C70.6594 20.1907 70.5497 20.1764 70.5192 20.2157C70.3808 20.3945 70.2352 20.298 70.0897 20.2515C69.1785 19.9654 68.2494 19.9368 67.3148 20.0762C67.0614 20.1138 66.8979 20.053 66.7272 19.8813C65.4422 18.5886 64.15 17.3048 62.8632 16.0138C62.5344 15.683 62.1623 15.4148 61.7256 15.2539C61.5082 15.1752 61.3932 15.0572 61.3285 14.8337C61.0481 13.8771 60.5323 13.0671 59.817 12.3644C58.3775 10.9536 56.9488 9.53211 55.5344 8.0963C54.7778 7.32923 53.8972 6.7803 52.88 6.44414C51.2284 5.89879 49.5318 5.81117 47.8245 6.0472C47.3968 6.1062 46.9691 5.95422 46.6689 5.64667C45.2132 4.15007 43.7162 2.68924 42.2425 1.21052C41.7932 0.759931 41.2774 0.427353 40.6682 0.239608C39.7085 -0.0536323 38.7326 -0.0822411 37.7675 0.178814C35.9183 0.675892 34.68 2.36739 35.2174 4.48802C35.3557 5.03158 35.6918 5.46429 36.0117 5.90773H35.9758C35.7691 5.92024 35.6091 5.93455 35.4025 5.92918C34.2918 5.90952 33.2117 6.06329 32.1819 6.49957C32.1622 6.50851 32.1298 6.49063 32.0921 6.48348C32.0669 6.39229 32.0418 6.29574 32.0184 6.20812C31.4074 6.12587 25.66 6.1509 25.3114 6.24388V7.95683C25.3114 8.25186 25.3221 8.54868 25.3078 8.84371C25.2952 9.12443 25.3671 9.4141 25.2035 9.82177C25.0562 9.62151 24.9717 9.47668 24.8585 9.36224C24.3589 8.85622 23.8736 8.33232 23.3417 7.86207C21.8536 6.5407 20.06 5.98998 18.1047 5.94528C17.3697 5.92918 16.6292 6.06329 15.8924 6.13839C15.7414 6.15448 15.5671 6.22064 15.5024 6.04541C15.3856 5.73071 15.0477 5.6431 14.8752 5.36953C14.7116 5.11026 14.4025 4.94218 14.1563 4.73477C14.1347 4.71689 14.1096 4.67934 14.0988 4.65431C13.9622 4.34497 13.6333 4.21802 13.4392 3.95339C13.2613 3.70843 12.981 3.53499 12.7455 3.32936C12.7258 3.31148 12.724 3.27572 12.7042 3.25605C12.4903 3.02003 12.3106 2.73751 12.0554 2.56229C11.554 2.21898 10.9969 1.96865 10.3966 1.8274C9.16737 1.53773 7.93092 1.48767 6.68188 1.6629C4.05801 2.02945 2.18356 3.84432 1.75584 6.43878C1.73427 6.56394 1.69114 6.68553 1.64801 6.85003H0V12.3715L1.67856 13.8503V19.4683C1.67856 19.9797 1.88344 20.4714 2.24826 20.8326L6.33323 24.8736C7.0485 24.9612 12.9288 24.9308 13.2721 24.8325V22.2308C13.2721 21.7874 13.2649 21.344 13.2739 20.9005C13.2829 20.4678 13.229 20.0315 13.3188 19.5434C13.468 19.6829 13.5776 19.7776 13.6801 19.8796C14.6469 20.8397 15.6156 21.7999 16.5807 22.7637C17.3247 23.5075 18.191 24.0707 19.1668 24.4588C20.9658 25.174 22.8313 25.2973 24.7291 25.0202C25.3563 24.929 25.9691 24.7466 26.6197 24.6C26.661 24.6715 26.7239 24.7699 26.7743 24.8736C26.8246 24.9773 26.8605 25.0846 26.9036 25.1919C26.6952 25.3456 26.4957 25.4762 26.316 25.6264C24.6482 27.021 24.6015 29.7746 26.2081 31.3678C27.7375 32.8823 29.2651 34.4021 30.7909 35.9184C31.2546 36.3797 31.8099 36.7444 32.4282 36.9608C33.2926 37.263 34.1822 37.3577 35.0916 37.2683H65.5464C65.8555 37.5276 66.0604 37.7225 66.3533 38.0032C66.5295 38.1713 66.6948 38.3519 66.8637 38.5271C67.092 38.7649 67.2843 39.0546 67.5503 39.2316C68.066 39.5749 68.607 39.8932 69.1677 40.1561C70.1166 40.5995 71.141 40.8015 72.178 40.907C73.5744 41.0501 74.969 41.0537 76.3384 40.6907C78.797 40.0398 80.3785 38.5343 80.9086 36.0149C80.9338 35.8933 80.9679 35.7735 81.0093 35.6126C81.1351 35.727 81.2231 35.8004 81.304 35.8826C81.8755 36.4709 82.5854 37.0591 83.3797 37.2648C83.9405 37.2648 92.9982 37.2683 92.9982 37.2683C93.0072 37.1235 92.9964 36.8231 92.9964 36.7069L92.9946 36.7105ZM10.066 11.2039H7.5589V19.0678H2.46931V11.22H0.781769V7.50446H2.40641C2.44056 7.19155 2.46752 6.91798 2.49807 6.64619C2.78022 4.17511 4.40487 2.55335 6.89035 2.27083C7.93271 2.15282 8.96788 2.19216 9.98688 2.44249C10.314 2.52295 10.6285 2.65705 11.0023 2.784C10.5853 3.99094 10.1846 5.15317 9.77302 6.34223C9.60588 6.28143 9.48547 6.22421 9.35967 6.19382C9.14401 6.14196 8.92655 6.09011 8.70729 6.07044C7.82129 5.98998 7.3037 6.72844 7.45646 7.47406H10.066V11.2039ZM24.4289 14.1328H15.9247C16.1206 14.6978 16.4639 15.0411 16.9311 15.2682C17.5817 15.5847 18.2754 15.6025 18.9781 15.5274C19.5209 15.4684 20.0097 15.2628 20.4662 14.9731C20.6153 14.8784 20.7645 14.7836 20.8741 14.7139C21.7745 15.599 22.6587 16.4662 23.5753 17.3638C22.8025 18.1827 21.8859 18.7191 20.8328 18.9891C18.9224 19.479 17.0048 19.4737 15.1268 18.8389C13.2991 18.222 11.9009 17.0777 11.1712 15.2592C10.0839 12.5485 10.8387 8.82761 14.4852 7.2434C16.7388 6.26534 19.0374 6.30825 21.2533 7.38645C23.1691 8.31981 24.2331 9.89508 24.4739 12.0157C24.5529 12.7095 24.5476 13.3961 24.4289 14.131V14.1328ZM43.2651 14.5422C43.4754 13.6196 44.0523 12.9705 44.8807 12.5325C45.7236 12.0872 46.6384 11.8959 47.5783 11.8458C48.4823 11.7976 49.3899 11.8101 50.2956 11.7958C50.4538 11.794 50.6119 11.7958 50.8132 11.7958C50.7072 11.1771 50.4017 10.798 49.8823 10.5871C49.3629 10.3761 48.8148 10.3367 48.263 10.3707C47.2854 10.4333 46.3616 10.6818 45.5295 11.2165C45.481 11.2468 45.4253 11.2647 45.3462 11.3005C44.8125 10.2008 44.2841 9.1137 43.7342 7.98366C43.939 7.86564 44.1223 7.74942 44.3146 7.65287C45.2797 7.17009 46.3095 6.89652 47.3716 6.7356C48.8669 6.50851 50.3603 6.5103 51.8394 6.86255C51.9113 6.88043 51.9832 6.89831 52.0551 6.91798C54.5082 7.60816 55.8237 9.23172 55.9369 11.7618C55.9801 12.7202 55.9585 13.6822 55.9621 14.6424C55.9657 15.9423 55.9621 17.2422 55.9621 18.5439V19.0749H51.2373V17.7053C51.1547 17.7428 51.1079 17.75 51.0918 17.775C50.5239 18.6887 49.6558 19.1286 48.6243 19.2537C47.6448 19.3735 46.6653 19.3467 45.7182 19.0159C43.7629 18.3311 42.8032 16.5735 43.2651 14.5386V14.5422ZM35.8823 3.2936C35.8643 2.30302 36.3118 1.53416 37.1835 1.08178C38.3966 0.454174 39.6636 0.461326 40.8533 1.12648C42.4204 2.00441 42.4402 4.24663 40.9306 5.28549C40.3339 5.69674 39.66 5.83799 38.9303 5.81833C38.357 5.83442 37.7891 5.73965 37.2679 5.45893C36.4053 4.99403 35.9039 4.28239 35.8859 3.29181L35.8823 3.2936ZM41.4769 6.82857V19.0749H36.4808C36.3909 18.7567 36.3586 7.47227 36.4484 6.82857H41.4769ZM26.1722 6.82679H30.9563V8.01763C31.3984 7.72081 31.7596 7.42221 32.1712 7.21658C32.5899 7.00559 33.0464 6.84645 33.5047 6.73917C33.9593 6.63189 34.4374 6.61758 34.9424 6.55858V11.0645C34.7088 11.0484 34.5039 11.0251 34.299 11.0216C33.9881 11.0162 33.6754 11.0037 33.3663 11.0341C32.0849 11.161 31.3498 11.912 31.2456 13.1851C31.2276 13.405 31.2294 13.6285 31.2294 13.8485C31.2294 15.4148 31.2294 16.9793 31.2294 18.5457V19.0195C30.8844 19.1161 26.7976 19.1411 26.1956 19.0588C26.1129 18.737 26.0895 7.36857 26.1758 6.82679H26.1722ZM36.7468 30.7348V31.2533H32.7139V30.1179C32.6079 30.193 32.5558 30.2127 32.5306 30.2502C32.0507 30.969 31.3373 31.307 30.5124 31.4125C29.727 31.5126 28.9398 31.4912 28.1707 31.2605C26.4939 30.7581 25.5666 29.2507 25.899 27.5503C26.0482 26.785 26.4669 26.195 27.1427 25.7909C27.7932 25.4028 28.5085 25.2026 29.2543 25.1489C30.1134 25.0881 30.976 25.0864 31.8351 25.0613C31.9932 25.056 32.1514 25.0613 32.3437 25.0613C32.252 24.4838 31.9393 24.1619 31.4523 24.0028C30.8143 23.7936 30.1619 23.8276 29.5131 23.9438C28.9542 24.0439 28.4241 24.2335 27.937 24.5321C27.8759 24.5696 27.8094 24.5964 27.7052 24.6465C27.2469 23.7024 26.7958 22.7762 26.3339 21.825C26.5173 21.7212 26.6628 21.6211 26.8228 21.5496C28.9866 20.5894 31.2222 20.3373 33.5172 20.9649C35.4402 21.4924 36.4862 22.7798 36.6821 24.7466C36.7216 25.1436 36.7414 25.5423 36.7432 25.941C36.7503 27.5378 36.7468 29.1345 36.7468 30.7312V30.7348ZM56.2964 30.9762C56.2964 31.0495 56.2874 31.1228 56.2784 31.2516H51.9706C51.9634 31.096 51.949 30.9404 51.9472 30.7867C51.9472 29.2346 51.9526 27.6826 51.9418 26.1306C51.94 25.7944 51.9041 25.4511 51.8304 25.1221C51.7262 24.6662 51.4225 24.3586 50.948 24.2925C50.4538 24.2227 50.0404 24.3997 49.7547 24.8217C49.4869 25.2187 49.433 25.6746 49.4312 26.1359C49.4276 27.6737 49.4312 29.2114 49.4312 30.7473V31.248H45.0802V30.7473C45.0802 29.2096 45.0856 27.6719 45.0748 26.1359C45.073 25.7998 45.0389 25.4565 44.9724 25.1275C44.879 24.6644 44.5842 24.3604 44.1044 24.2925C43.6101 24.2227 43.1932 24.3872 42.9039 24.8038C42.6199 25.2115 42.5678 25.6818 42.5678 26.1592C42.5642 27.6826 42.5678 29.2042 42.5678 30.7277V31.2426H38.2492V20.8594H42.3431V21.6944C44.5806 20.2068 46.66 20.205 48.653 22.1218C48.7105 22.0717 48.8112 21.9948 48.8992 21.9054C50.3873 20.407 52.8009 20.3212 54.3536 21.183C55.3061 21.7105 55.8615 22.5527 56.1023 23.5898C56.2173 24.0904 56.2856 24.6107 56.291 25.1239C56.3126 27.0747 56.3 29.0272 56.3 30.978L56.2964 30.9762ZM62.0976 31.2051C61.7831 31.2891 58.5033 31.3159 57.824 31.2355V20.8469H62.0599C62.148 21.1795 62.1785 30.5399 62.0976 31.2051ZM61.6502 19.5273C61.1487 19.8849 60.5718 20.0029 59.9554 20.0476C59.5798 19.9725 59.1916 19.935 58.8304 19.817C57.912 19.5148 57.3531 18.7388 57.3477 17.8197C57.3423 16.8953 57.8815 16.1175 58.798 15.7974C59.5942 15.5185 60.4083 15.5221 61.1973 15.8189C61.9251 16.0925 62.4283 16.5931 62.5362 17.3924C62.6548 18.2667 62.3888 18.9998 61.6502 19.5273ZM75.3608 29.3813C75.3554 30.0107 75.2637 30.649 75.1217 31.2641C74.7372 32.9144 73.6894 34.0105 72.1259 34.6399C71.4178 34.926 70.6755 35.0744 69.9189 35.1316C68.2583 35.255 66.6247 35.1048 65.0504 34.5326C64.6083 34.3717 64.1949 34.1393 63.7097 33.9104C64.2093 32.9001 64.682 31.94 65.169 30.9547C65.3002 31.0245 65.4008 31.0781 65.5015 31.1335C66.7056 31.8023 67.9852 32.0919 69.36 31.8863C70.4868 31.7182 71.1087 30.8939 70.9901 29.7567C70.9613 29.7567 70.9236 29.7442 70.9074 29.7567C69.5631 30.9065 68.0229 30.919 66.4576 30.4183C64.2596 29.7156 62.9621 27.6612 63.0933 25.3403C63.2856 21.9269 66.4863 20.0745 69.4283 20.7861C70.1292 20.956 70.7097 21.3136 71.1716 21.8697C71.2021 21.8589 71.2327 21.8482 71.2632 21.8357V20.8523H75.3751V21.3118C75.3751 24.001 75.3895 26.6902 75.3644 29.3795L75.3608 29.3813ZM87.294 30.7455V31.248H83.236V30.1108C83.1353 30.1966 83.0958 30.2163 83.0742 30.2485C82.5854 30.9816 81.8575 31.3177 81.0165 31.4196C80.2473 31.5126 79.4745 31.4876 78.7215 31.2659C77.0196 30.7634 76.0778 29.1989 76.457 27.4788C76.6368 26.6634 77.1274 26.0769 77.8642 25.6907C78.4771 25.3707 79.1384 25.1919 79.8231 25.1472C80.666 25.0935 81.5125 25.0881 82.3589 25.0631C82.5189 25.0578 82.6806 25.0631 82.8711 25.0631C82.8388 24.6161 82.6285 24.3211 82.2871 24.1423C82.0552 24.0225 81.791 23.9366 81.5323 23.9027C80.4683 23.765 79.4655 23.9724 78.5328 24.5035C78.4573 24.5464 78.3782 24.5875 78.2542 24.6554C77.7959 23.7149 77.3466 22.7923 76.8776 21.8303C77.0339 21.7409 77.1669 21.6569 77.3071 21.5836C78.1877 21.1294 79.1348 20.8916 80.1089 20.7486C81.4298 20.5572 82.7453 20.5787 84.0357 20.9542C86.0252 21.5335 87.0873 22.8424 87.2383 24.895C87.2778 25.4243 87.2868 25.9571 87.2904 26.4882C87.2976 27.9061 87.2922 29.324 87.2922 30.7438L87.294 30.7455Z" fill="black"/>
<path d="M30.5896 27.2588C30.2122 27.3733 30.0127 27.6468 30.0055 28.0027C29.9984 28.3406 30.2158 28.6428 30.5627 28.7787C31.2222 29.0362 32.0507 28.7143 32.3059 28.0599C32.403 27.8113 32.385 27.5181 32.4317 27.1516C31.756 27.1891 31.1665 27.0854 30.5914 27.2606L30.5896 27.2588Z" fill="black"/>
<path d="M56.1041 23.6201C55.865 22.5831 55.3079 21.7409 54.3554 21.2134C52.8027 20.3534 50.3909 20.4374 48.901 21.9358C48.813 22.0252 48.7123 22.1021 48.6548 22.1521C46.6617 20.2353 44.5824 20.2371 42.3449 21.7248V20.8898H38.251V31.273H42.5696V30.758C42.5696 29.2346 42.5678 27.713 42.5696 26.1896C42.5696 25.7121 42.6217 25.2419 42.9057 24.8342C43.1968 24.4158 43.6137 24.2531 44.1062 24.3228C44.586 24.3908 44.8807 24.6947 44.9742 25.1579C45.0407 25.4886 45.0748 25.8302 45.0766 26.1663C45.0874 27.704 45.082 29.2418 45.082 30.7777V31.2783H49.433V30.7777C49.433 29.24 49.433 27.7022 49.433 26.1663C49.433 25.7032 49.4869 25.249 49.7565 24.8521C50.0404 24.4301 50.4556 24.2531 50.9498 24.3228C51.4242 24.389 51.728 24.6965 51.8322 25.1525C51.9059 25.4797 51.9418 25.823 51.9436 26.1609C51.9544 27.713 51.9472 29.265 51.949 30.817C51.949 30.9726 51.9634 31.1264 51.9724 31.2819H56.2802C56.2892 31.1532 56.2982 31.0799 56.2982 31.0066C56.2982 29.0558 56.3107 27.1033 56.2892 25.1525C56.2838 24.6393 56.2155 24.119 56.1005 23.6183L56.1041 23.6201Z" fill="white"/>
<path d="M87.2472 24.929C87.0963 22.8763 86.0341 21.5675 84.0447 20.9881C82.7543 20.6126 81.4388 20.5912 80.1179 20.7825C79.1438 20.9238 78.1967 21.1616 77.3161 21.6175C77.1759 21.6908 77.0411 21.7749 76.8866 21.8643C77.3556 22.8263 77.8049 23.7489 78.2632 24.6894C78.3872 24.6215 78.4645 24.5803 78.5417 24.5374C79.4745 24.0064 80.4773 23.799 81.5412 23.9366C81.8 23.9706 82.066 24.0546 82.296 24.1762C82.6375 24.355 82.8496 24.6501 82.8801 25.0971C82.6896 25.0971 82.5297 25.0935 82.3679 25.0971C81.5233 25.1221 80.6768 25.1275 79.8321 25.1811C79.1474 25.224 78.486 25.4046 77.8732 25.7247C77.1364 26.1091 76.6457 26.6956 76.466 27.5127C76.0868 29.2328 77.0285 30.7974 78.7304 31.2998C79.4853 31.5215 80.2562 31.5466 81.0254 31.4536C81.8665 31.3517 82.5944 31.0155 83.0832 30.2824C83.1048 30.2502 83.1425 30.2306 83.2449 30.1447V31.2819H87.303V30.7795C87.303 29.3616 87.3083 27.9437 87.3012 26.5239C87.2994 25.9929 87.2886 25.46 87.249 24.9308L87.2472 24.929ZM81.4765 28.886C81.2788 28.8645 81.0632 28.8001 80.8996 28.6893C80.3802 28.337 80.4647 27.5771 81.0398 27.325C81.1476 27.2785 81.2645 27.2427 81.3795 27.2284C81.57 27.2052 81.7623 27.1962 81.9546 27.1927C82.2637 27.1873 82.5728 27.1927 82.8963 27.1927C83.1784 28.3638 82.2241 28.9664 81.4765 28.8877V28.886Z" fill="white"/>
<path d="M75.3787 20.8862H71.2668V21.8696C71.2362 21.8804 71.2057 21.8911 71.1751 21.9036C70.7133 21.3475 70.1328 20.9881 69.4319 20.8201C66.4899 20.1084 63.2892 21.9626 63.0969 25.3742C62.9657 27.6951 64.2632 29.7496 66.4612 30.4523C68.0265 30.9529 69.5667 30.9404 70.911 29.7907C70.9271 29.7764 70.9649 29.7907 70.9936 29.7907C71.1104 30.9279 70.4886 31.7522 69.3636 31.9203C67.9906 32.1259 66.7092 31.8362 65.5051 31.1675C65.4062 31.1121 65.3038 31.0602 65.1726 30.9887C64.6856 31.9739 64.2129 32.9341 63.7133 33.9443C64.1985 34.1714 64.6137 34.4057 65.054 34.5666C66.6283 35.1406 68.2601 35.2908 69.9225 35.1656C70.6791 35.1084 71.4214 34.96 72.1294 34.6739C73.693 34.0445 74.7425 32.9484 75.1253 31.298C75.2673 30.6847 75.359 30.0446 75.3643 29.4152C75.3895 26.726 75.3751 24.0368 75.3751 21.3475V20.888L75.3787 20.8862ZM69.3061 27.3751C68.2781 27.3804 67.5143 26.667 67.5107 25.6979C67.5071 24.7198 68.2457 24.0385 69.3079 24.0403C70.3484 24.0403 71.0745 24.7126 71.0835 25.6764C71.0925 26.6509 70.3413 27.3697 69.3079 27.3751H69.3061Z" fill="white"/>
<path d="M55.9405 11.7976C55.8273 9.26568 54.5118 7.64212 52.0586 6.95372C51.9868 6.93406 51.9149 6.91439 51.843 6.8983C50.3621 6.54605 48.8705 6.54426 47.3752 6.77134C46.3149 6.93227 45.2833 7.20405 44.3182 7.68861C44.1259 7.78517 43.9426 7.90139 43.7377 8.0194C44.2877 9.14945 44.816 10.2366 45.3498 11.3362C45.4289 11.3005 45.4864 11.2826 45.5331 11.2522C46.3652 10.7176 47.289 10.469 48.2666 10.4065C48.8183 10.3707 49.3665 10.4118 49.8859 10.6228C50.4034 10.832 50.7108 11.2129 50.8168 11.8315C50.6173 11.8315 50.4574 11.8297 50.2992 11.8315C49.3934 11.8458 48.4859 11.8315 47.5819 11.8816C46.642 11.9317 45.7272 12.1248 44.8843 12.5682C44.054 13.0063 43.4772 13.6553 43.2687 14.578C42.8068 16.6128 43.7665 18.3704 45.7218 19.0553C46.6671 19.386 47.6484 19.4129 48.6278 19.2931C49.6594 19.1679 50.5275 18.728 51.0954 17.8143C51.1115 17.7893 51.1583 17.7822 51.2409 17.7446V19.1143H55.9657V18.5832C55.9657 17.2833 55.9675 15.9834 55.9657 14.6817C55.9639 13.7215 55.9837 12.7595 55.9405 11.8011V11.7976ZM50.7844 15.295C50.4987 16.1014 49.4779 16.5109 48.68 16.1819C48.2684 16.012 48.0545 15.683 48.0689 15.2467C48.0833 14.8247 48.299 14.5368 48.7249 14.3974C48.8651 14.3509 49.0142 14.308 49.158 14.3044C49.7044 14.2937 50.2507 14.3008 50.8905 14.3008C50.8563 14.662 50.8869 15.0017 50.7844 15.295Z" fill="white"/>
<path d="M21.2587 7.42039C19.0428 6.34041 16.7442 6.2975 14.4906 7.27735C10.8441 8.86156 10.0893 12.5825 11.1766 15.2932C11.9062 17.1116 13.3026 18.256 15.1321 18.8729C17.0102 19.5076 18.9278 19.513 20.8382 19.0231C21.8913 18.7531 22.8079 18.2166 23.5806 17.3977C22.6659 16.5001 21.7817 15.6311 20.8795 14.7478C20.7699 14.8176 20.6207 14.9123 20.4715 15.0071C20.0151 15.2968 19.5262 15.5024 18.9835 15.5614C18.2808 15.6365 17.5871 15.6186 16.9365 15.3021C16.4692 15.075 16.126 14.7317 15.9301 14.1667H24.4343C24.5529 13.4318 24.5583 12.7452 24.4792 12.0514C24.2384 9.93082 23.1763 8.35733 21.2587 7.42218V7.42039ZM15.8672 11.6867C15.887 10.8749 16.6364 10.1668 17.535 10.0971C18.6851 10.0095 19.5406 10.6174 19.7167 11.6867H15.869H15.8672Z" fill="white"/>
<path d="M8.71267 6.10082C8.93192 6.12049 9.14938 6.17413 9.36504 6.2242C9.49084 6.2546 9.61125 6.31002 9.77839 6.37261C10.1899 5.18355 10.5907 4.02132 11.0077 2.81439C10.6338 2.68743 10.3193 2.55333 9.99225 2.47287C8.97146 2.22433 7.93629 2.1832 6.89573 2.30122C4.41204 2.58373 2.7856 4.20549 2.50344 6.67658C2.47289 6.94836 2.44414 7.22193 2.41179 7.53484H0.78894V11.2504H2.47469V19.0982H7.56607V11.2343H10.0731V7.50444H7.46363C7.31087 6.75883 7.82666 6.02036 8.71447 6.10082H8.71267Z" fill="white"/>
<path d="M36.6892 24.7824C36.4951 22.8155 35.4474 21.5281 33.5244 21.0006C31.2294 20.3713 28.9937 20.6252 26.8299 21.5853C26.67 21.6569 26.5244 21.757 26.3411 21.8607C26.803 22.8119 27.2523 23.7364 27.7124 24.6822C27.8148 24.6322 27.8831 24.6054 27.9442 24.5678C28.4312 24.2692 28.9614 24.0797 29.5203 23.9795C30.1691 23.8633 30.8233 23.8293 31.4595 24.0385C31.9447 24.1977 32.2592 24.5195 32.3509 25.0971C32.1604 25.0971 32.0004 25.0935 31.8423 25.0971C30.9814 25.1221 30.1188 25.1239 29.2615 25.1847C28.5157 25.2383 27.7986 25.4368 27.1498 25.8266C26.4759 26.2307 26.0554 26.819 25.9062 27.586C25.5737 29.2865 26.5011 30.7938 28.1778 31.2962C28.9452 31.5269 29.7342 31.5484 30.5195 31.4482C31.3444 31.3427 32.0561 31.0048 32.5378 30.286C32.5629 30.2484 32.615 30.2288 32.7211 30.1537V31.2891H36.7539V30.7706C36.7539 29.1738 36.7575 27.5771 36.7503 25.9804C36.7503 25.5816 36.7288 25.1829 36.6892 24.7859V24.7824ZM32.3113 28.0921C32.0561 28.7465 31.2276 29.0683 30.5681 28.8109C30.2212 28.675 30.0056 28.3728 30.0109 28.0348C30.0181 27.679 30.2194 27.4054 30.595 27.291C31.1719 27.1158 31.7614 27.2195 32.4353 27.1819C32.3886 27.5503 32.4066 27.8435 32.3095 28.0903L32.3113 28.0921Z" fill="white"/>
<path d="M32.1747 7.24696C31.765 7.45259 31.4019 7.75119 30.9598 8.04801V6.85717H26.1758C26.0895 7.39895 26.1129 18.7674 26.1955 19.0892C26.7994 19.1715 30.8861 19.1464 31.2294 19.0499V18.576C31.2294 17.0097 31.2294 15.4452 31.2294 13.8788C31.2294 13.6571 31.2294 13.4354 31.2456 13.2155C31.3498 11.9424 32.0849 11.1914 33.3662 11.0644C33.6754 11.0341 33.9881 11.0484 34.299 11.0519C34.5039 11.0555 34.7087 11.0788 34.9424 11.0948V6.58896C34.4374 6.64796 33.9593 6.66227 33.5046 6.76955C33.0463 6.87684 32.5917 7.03776 32.1711 7.24696H32.1747Z" fill="white"/>
<path d="M41.4823 6.86075H36.4538C36.3639 7.50266 36.3945 18.7888 36.4862 19.1071H41.4823V6.86075Z" fill="white"/>
<path d="M57.8293 20.8791V31.2676C58.5087 31.3481 61.7903 31.3213 62.103 31.2372C62.1839 30.5721 62.1533 21.2116 62.0653 20.8791H57.8293Z" fill="white"/>
<path d="M37.2715 5.49288C37.7927 5.77361 38.3606 5.86837 38.9339 5.85228C39.6636 5.87016 40.3375 5.73069 40.9342 5.31944C42.4438 4.2788 42.424 2.03837 40.8569 1.16044C39.6671 0.493492 38.4019 0.48634 37.187 1.11573C36.3154 1.56632 35.8679 2.33697 35.8859 3.32755C35.9039 4.31813 36.4053 5.02978 37.2679 5.49467L37.2715 5.49288Z" fill="white"/>
<path d="M61.2026 15.8511C60.4118 15.5542 59.5995 15.5507 58.8034 15.8296C57.8886 16.1497 57.3477 16.9275 57.3531 17.8519C57.3585 18.771 57.9174 19.547 58.8357 19.8491C59.197 19.9672 59.5852 20.0047 59.9608 20.0798C60.5772 20.0351 61.1541 19.9171 61.6555 19.5595C62.3923 19.032 62.6601 18.2989 62.5415 17.4246C62.4337 16.6253 61.9305 16.1246 61.2026 15.8511Z" fill="white"/>
</g>
<defs>
<clipPath id="clip0_563_18">
<rect width="93" height="41" fill="white"/>
</clipPath>
</defs>
</svg>
